<?xml version="1.0" encoding="UTF-8" standalone="no"?>
<!DOCTYPE svg PUBLIC "-//W3C//DTD SVG 1.1//EN" "http://www.w3.org/Graphics/SVG/1.1/DTD/svg11.dtd">
<svg width="100%" height="100%" viewBox="0 0 100 100" version="1.1" xmlns="http://www.w3.org/2000/svg" xmlns:xlink="http://www.w3.org/1999/xlink" xml:space="preserve" style="fill-rule:evenodd;clip-rule:evenodd;stroke-linejoin:round;stroke-miterlimit:1.41421;">
    <g transform="matrix(5.79064,0,0,5.79064,-1.65463,-1.00356)">
        <path d="M7.601,0.641L7.642,0.641L7.684,0.642L7.726,0.642L7.768,0.644L7.809,0.645L7.851,0.646L7.893,0.648L7.935,0.65L7.976,0.653L8.018,0.655L8.06,0.658L8.101,0.661L8.143,0.665L8.185,0.668L8.226,0.672L8.268,0.676L8.309,0.681L8.351,0.685L8.393,0.69L8.434,0.695L8.476,0.701L8.517,0.706L8.558,0.712L8.6,0.718L8.641,0.725L8.683,0.731L8.724,0.738L8.765,0.745L8.806,0.752L8.848,0.76L8.889,0.768L8.93,0.776L8.971,0.784L9.012,0.793L9.053,0.802L9.094,0.811L9.135,0.82L9.176,0.83L9.217,0.84L9.258,0.85L9.298,0.86L9.339,0.871L9.38,0.881L9.42,0.893L9.461,0.904L9.501,0.915L9.542,0.927L9.582,0.939L9.622,0.952L9.663,0.964L9.703,0.977L9.743,0.99L9.783,1.004L9.823,1.017L9.863,1.031L9.903,1.045L9.943,1.059L9.982,1.074L10.022,1.089L10.062,1.104L10.101,1.119L10.141,1.135L10.18,1.151L10.219,1.167L10.258,1.183L10.298,1.199L10.337,1.216L10.376,1.233L10.414,1.251L10.453,1.268L10.492,1.286L10.531,1.304L10.569,1.322L10.608,1.341L10.646,1.36L10.684,1.379L10.722,1.398L10.76,1.418L10.798,1.438L10.836,1.458L10.874,1.478L10.912,1.499L10.949,1.519L10.987,1.54L11.024,1.562L11.062,1.583L11.099,1.605L11.136,1.627L11.173,1.649L11.21,1.672L11.246,1.695L11.283,1.718L11.32,1.741L11.356,1.765L11.392,1.788L11.428,1.813L11.464,1.837L11.5,1.861L11.536,1.886L11.572,1.911L11.607,1.936L11.643,1.962L11.678,1.988L11.713,2.014L11.748,2.04L11.783,2.067L11.818,2.093L11.853,2.12L11.887,2.148L11.922,2.175L11.956,2.203L11.99,2.231L12.024,2.259L12.058,2.288L12.092,2.316L12.125,2.345L12.159,2.375L12.192,2.404L12.225,2.434L12.258,2.464L12.291,2.494L12.324,2.525L12.356,2.555L12.388,2.586L12.421,2.618L12.453,2.649L12.485,2.681L12.516,2.713L12.548,2.745L12.579,2.777L12.61,2.809L12.641,2.842L12.671,2.875L12.701,2.907L12.731,2.94L12.761,2.973L12.791,3.007L12.82,3.04L12.849,3.074L12.878,3.107L12.906,3.141L12.934,3.175L12.962,3.209L12.99,3.244L13.018,3.278L13.045,3.313L13.072,3.347L13.099,3.382L13.125,3.417L13.152,3.452L13.178,3.487L13.203,3.523L13.229,3.558L13.254,3.594L13.279,3.629L13.304,3.665L13.329,3.701L13.353,3.737L13.377,3.773L13.401,3.809L13.424,3.846L13.448,3.882L13.471,3.919L13.493,3.956L13.516,3.993L13.538,4.03L13.56,4.067L13.582,4.104L13.604,4.141L13.625,4.178L13.646,4.216L13.667,4.254L13.687,4.291L13.708,4.329L13.728,4.367L13.748,4.405L13.767,4.443L13.786,4.481L13.806,4.519L13.824,4.558L13.843,4.596L13.861,4.635L13.879,4.673L13.897,4.712L13.915,4.751L13.932,4.79L13.949,4.829L13.966,4.868L13.982,4.907L13.999,4.946L14.015,4.985L14.031,5.025L14.046,5.064L14.062,5.104L14.077,5.143L14.091,5.183L14.106,5.223L14.12,5.263L14.134,5.302L14.148,5.342L14.162,5.382L14.175,5.422L14.188,5.463L14.201,5.503L14.214,5.543L14.226,5.583L14.238,5.624L14.25,5.664L14.262,5.705L14.273,5.745L14.284,5.786L14.295,5.826L14.305,5.867L14.316,5.908L14.326,5.949L14.336,5.989L14.345,6.03L14.355,6.071L14.364,6.112L14.372,6.153L14.381,6.194L14.389,6.235L14.398,6.277L14.405,6.318L14.413,6.359L14.42,6.4L14.427,6.441L14.434,6.483L14.441,6.524L14.447,6.566L14.453,6.607L14.459,6.648L14.465,6.69L14.47,6.731L14.475,6.773L14.48,6.814L14.485,6.856L14.489,6.898L14.493,6.939L14.497,6.981L14.501,7.022L14.504,7.064L14.507,7.106L14.51,7.147L14.513,7.189L14.515,7.231L14.517,7.273L14.519,7.314L14.521,7.356L14.522,7.398L14.523,7.44L14.524,7.481L14.525,7.523L14.525,7.565L14.525,7.607L14.525,7.648L14.525,7.69L14.524,7.732L14.523,7.774L14.522,7.815L14.521,7.857L14.519,7.899L14.517,7.941L14.515,7.982L14.513,8.024L14.51,8.066L14.507,8.107L14.504,8.149L14.501,8.191L14.497,8.232L14.493,8.274L14.489,8.316L14.485,8.357L14.48,8.399L14.475,8.44L14.47,8.482L14.465,8.523L14.459,8.565L14.453,8.606L14.447,8.648L14.441,8.689L14.434,8.73L14.427,8.772L14.42,8.813L14.413,8.854L14.405,8.895L14.398,8.937L14.389,8.978L14.381,9.019L14.372,9.06L14.364,9.101L14.355,9.142L14.345,9.183L14.336,9.224L14.326,9.265L14.316,9.305L14.305,9.346L14.295,9.387L14.284,9.427L14.273,9.468L14.262,9.509L14.25,9.549L14.238,9.59L14.226,9.63L14.214,9.67L14.201,9.71L14.188,9.751L14.175,9.791L14.162,9.831L14.148,9.871L14.134,9.911L14.12,9.951L14.106,9.99L14.091,10.03L14.077,10.07L14.062,10.109L14.046,10.149L14.031,10.188L14.015,10.228L13.999,10.267L13.982,10.306L13.966,10.345L13.949,10.384L13.932,10.423L13.915,10.462L13.897,10.501L13.879,10.54L13.861,10.578L13.843,10.617L13.824,10.655L13.806,10.694L13.786,10.732L13.767,10.77L13.748,10.808L13.728,10.846L13.708,10.884L13.687,10.922L13.667,10.96L13.646,10.997L13.625,11.035L13.604,11.072L13.582,11.109L13.56,11.147L13.538,11.184L13.516,11.221L13.493,11.257L13.471,11.294L13.448,11.331L13.424,11.367L13.401,11.404L13.377,11.44L13.353,11.476L13.329,11.512L13.304,11.548L13.279,11.584L13.254,11.62L13.229,11.655L13.203,11.691L13.178,11.726L13.152,11.761L13.125,11.796L13.099,11.831L13.072,11.866L13.045,11.901L13.018,11.935L12.99,11.97L12.962,12.004L12.934,12.038L12.906,12.072L12.878,12.106L12.849,12.139L12.82,12.173L12.791,12.206L12.761,12.24L12.731,12.273L12.701,12.306L12.671,12.339L12.641,12.371L12.61,12.404L12.579,12.436L12.548,12.468L12.516,12.501L12.485,12.532L12.453,12.564L12.421,12.596L12.388,12.627L12.356,12.658L12.324,12.689L12.291,12.719L12.258,12.749L12.225,12.779L12.192,12.809L12.159,12.838L12.125,12.868L12.092,12.897L12.058,12.925L12.024,12.954L11.99,12.982L11.956,13.01L11.922,13.038L11.887,13.066L11.853,13.093L11.818,13.12L11.783,13.147L11.748,13.173L11.713,13.199L11.678,13.225L11.643,13.251L11.607,13.277L11.572,13.302L11.536,13.327L11.5,13.352L11.464,13.376L11.428,13.401L11.392,13.425L11.356,13.449L11.32,13.472L11.283,13.495L11.246,13.518L11.21,13.541L11.173,13.564L11.136,13.586L11.099,13.608L11.062,13.63L11.024,13.651L10.987,13.673L10.949,13.694L10.912,13.715L10.874,13.735L10.836,13.756L10.798,13.776L10.76,13.795L10.722,13.815L10.684,13.834L10.646,13.853L10.608,13.872L10.569,13.891L10.531,13.909L10.492,13.927L10.453,13.945L10.414,13.963L10.376,13.98L10.337,13.997L10.298,14.014L10.258,14.03L10.219,14.047L10.18,14.063L10.141,14.079L10.101,14.094L10.062,14.109L10.022,14.124L9.982,14.139L9.943,14.154L9.903,14.168L9.863,14.182L9.823,14.196L9.783,14.21L9.743,14.223L9.703,14.236L9.663,14.249L9.622,14.262L9.582,14.274L9.542,14.286L9.501,14.298L9.461,14.309L9.42,14.321L9.38,14.332L9.339,14.343L9.298,14.353L9.258,14.364L9.217,14.374L9.176,14.383L9.135,14.393L9.094,14.402L9.053,14.411L9.012,14.42L8.971,14.429L8.93,14.437L8.889,14.445L8.848,14.453L8.806,14.461L8.765,14.468L8.724,14.475L8.683,14.482L8.641,14.489L8.6,14.495L8.558,14.501L8.517,14.507L8.476,14.513L8.434,14.518L8.393,14.523L8.351,14.528L8.309,14.532L8.268,14.537L8.226,14.541L8.185,14.545L8.143,14.548L8.101,14.552L8.06,14.555L8.018,14.558L7.976,14.56L7.935,14.563L7.893,14.565L7.851,14.567L7.809,14.568L7.768,14.57L7.726,14.571L7.684,14.572L7.642,14.572L7.601,14.573L7.559,14.573L7.517,14.573L7.475,14.572L7.434,14.572L7.392,14.571L7.35,14.57L7.308,14.568L7.267,14.567L7.225,14.565L7.183,14.563L7.141,14.56L7.1,14.558L7.058,14.555L7.016,14.552L6.975,14.548L6.933,14.545L6.891,14.541L6.85,14.537L6.808,14.532L6.767,14.528L6.725,14.523L6.684,14.518L6.642,14.513L6.601,14.507L6.559,14.501L6.518,14.495L6.476,14.489L6.435,14.482L6.394,14.475L6.352,14.468L6.311,14.461L6.27,14.453L6.229,14.445L6.188,14.437L6.147,14.429L6.105,14.42L6.064,14.411L6.023,14.402L5.983,14.393L5.942,14.383L5.901,14.374L5.86,14.364L5.819,14.353L5.779,14.343L5.738,14.332L5.697,14.321L5.657,14.309L5.616,14.298L5.576,14.286L5.536,14.274L5.495,14.261L5.455,14.249L5.415,14.236L5.375,14.223L5.335,14.21L5.295,14.196L5.255,14.182L5.215,14.168L5.175,14.154L5.135,14.139L5.096,14.124L5.056,14.109L5.016,14.094L4.977,14.079L4.938,14.063L4.898,14.047L4.859,14.03L4.82,14.014L4.781,13.997L4.742,13.98L4.703,13.963L4.664,13.945L4.626,13.927L4.587,13.909L4.548,13.891L4.51,13.872L4.472,13.853L4.433,13.834L4.395,13.815L4.357,13.795L4.319,13.776L4.281,13.756L4.243,13.735L4.206,13.715L4.168,13.694L4.131,13.673L4.093,13.651L4.056,13.63L4.019,13.608L3.982,13.586L3.945,13.564L3.908,13.541L3.871,13.518L3.835,13.495L3.798,13.472L3.762,13.449L3.725,13.425L3.689,13.401L3.653,13.376L3.617,13.352L3.581,13.327L3.546,13.302L3.51,13.277L3.475,13.251L3.439,13.225L3.404,13.199L3.369,13.173L3.334,13.147L3.299,13.12L3.265,13.093L3.23,13.066L3.196,13.038L3.162,13.01L3.127,12.982L3.093,12.954L3.06,12.925L3.026,12.897L2.992,12.868L2.959,12.838L2.926,12.809L2.893,12.779L2.86,12.749L2.827,12.719L2.794,12.689L2.762,12.658L2.729,12.627L2.697,12.596L2.665,12.564L2.633,12.532L2.601,12.501L2.57,12.468L2.539,12.436L2.508,12.404L2.477,12.371L2.446,12.339L2.416,12.306L2.386,12.273L2.356,12.24L2.327,12.206L2.298,12.173L2.269,12.139L2.24,12.106L2.211,12.072L2.183,12.038L2.155,12.004L2.127,11.97L2.1,11.935L2.073,11.901L2.046,11.866L2.019,11.831L1.992,11.796L1.966,11.761L1.94,11.726L1.914,11.691L1.889,11.655L1.863,11.62L1.838,11.584L1.814,11.548L1.789,11.512L1.765,11.476L1.741,11.44L1.717,11.404L1.693,11.367L1.67,11.331L1.647,11.294L1.624,11.257L1.602,11.221L1.579,11.184L1.557,11.147L1.535,11.109L1.514,11.072L1.493,11.035L1.472,10.997L1.451,10.96L1.43,10.922L1.41,10.884L1.39,10.846L1.37,10.808L1.35,10.77L1.331,10.732L1.312,10.694L1.293,10.655L1.275,10.617L1.256,10.578L1.238,10.54L1.22,10.501L1.203,10.462L1.186,10.423L1.169,10.384L1.152,10.345L1.135,10.306L1.119,10.267L1.103,10.228L1.087,10.188L1.071,10.149L1.056,10.109L1.041,10.07L1.026,10.03L1.012,9.99L0.997,9.951L0.983,9.911L0.969,9.871L0.956,9.831L0.942,9.791L0.929,9.751L0.916,9.71L0.904,9.67L0.892,9.63L0.879,9.59L0.868,9.549L0.856,9.509L0.845,9.468L0.834,9.427L0.823,9.387L0.812,9.346L0.802,9.305L0.792,9.265L0.782,9.224L0.772,9.183L0.763,9.142L0.754,9.101L0.745,9.06L0.737,9.019L0.728,8.978L0.72,8.937L0.712,8.895L0.705,8.854L0.697,8.813L0.69,8.772L0.683,8.73L0.677,8.689L0.67,8.648L0.664,8.606L0.658,8.565L0.653,8.523L0.647,8.482L0.642,8.44L0.638,8.399L0.633,8.357L0.629,8.316L0.624,8.274L0.621,8.232L0.617,8.191L0.614,8.149L0.611,8.107L0.608,8.066L0.605,8.024L0.603,7.982L0.601,7.941L0.599,7.899L0.597,7.857L0.596,7.815L0.595,7.774L0.594,7.732L0.593,7.69L0.593,7.648L0.593,7.607L0.593,7.565L0.593,7.523L0.594,7.481L0.595,7.44L0.596,7.398L0.597,7.356L0.599,7.314L0.601,7.273L0.603,7.231L0.605,7.189L0.608,7.147L0.611,7.106L0.614,7.064L0.617,7.022L0.621,6.981L0.624,6.939L0.629,6.898L0.633,6.856L0.638,6.814L0.642,6.773L0.647,6.731L0.653,6.69L0.658,6.648L0.664,6.607L0.67,6.566L0.677,6.524L0.683,6.483L0.69,6.441L0.697,6.4L0.705,6.359L0.712,6.318L0.72,6.277L0.728,6.235L0.737,6.194L0.745,6.153L0.754,6.112L0.763,6.071L0.772,6.03L0.782,5.989L0.792,5.949L0.802,5.908L0.812,5.867L0.823,5.826L0.834,5.786L0.845,5.745L0.856,5.705L0.868,5.664L0.879,5.624L0.892,5.583L0.904,5.543L0.916,5.503L0.929,5.463L0.942,5.422L0.956,5.382L0.969,5.342L0.983,5.302L0.997,5.263L1.012,5.223L1.026,5.183L1.041,5.143L1.056,5.104L1.071,5.064L1.087,5.025L1.103,4.985L1.119,4.946L1.135,4.907L1.152,4.868L1.169,4.829L1.186,4.79L1.203,4.751L1.22,4.712L1.238,4.673L1.256,4.635L1.275,4.596L1.293,4.558L1.312,4.519L1.331,4.481L1.35,4.443L1.37,4.405L1.39,4.367L1.41,4.329L1.43,4.291L1.451,4.254L1.472,4.216L1.493,4.178L1.514,4.141L1.535,4.104L1.557,4.067L1.579,4.03L1.602,3.993L1.624,3.956L1.647,3.919L1.67,3.882L1.693,3.846L1.717,3.809L1.741,3.773L1.765,3.737L1.789,3.701L1.814,3.665L1.838,3.629L1.863,3.594L1.889,3.558L1.914,3.523L1.94,3.487L1.966,3.452L1.992,3.417L2.019,3.382L2.046,3.347L2.073,3.313L2.1,3.278L2.127,3.244L2.155,3.209L2.183,3.175L2.211,3.141L2.24,3.107L2.269,3.074L2.298,3.04L2.327,3.007L2.356,2.973L2.386,2.94L2.416,2.907L2.446,2.875L2.477,2.842L2.508,2.809L2.539,2.777L2.57,2.745L2.601,2.713L2.633,2.681L2.665,2.649L2.697,2.618L2.729,2.586L2.762,2.555L2.794,2.525L2.827,2.494L2.86,2.464L2.893,2.434L2.926,2.404L2.959,2.375L2.992,2.345L3.026,2.316L3.06,2.288L3.093,2.259L3.127,2.231L3.162,2.203L3.196,2.175L3.23,2.148L3.265,2.12L3.299,2.093L3.334,2.067L3.369,2.04L3.404,2.014L3.439,1.988L3.475,1.962L3.51,1.936L3.546,1.911L3.581,1.886L3.617,1.861L3.653,1.837L3.689,1.813L3.725,1.788L3.762,1.765L3.798,1.741L3.835,1.718L3.871,1.695L3.908,1.672L3.945,1.649L3.982,1.627L4.019,1.605L4.056,1.583L4.093,1.562L4.131,1.54L4.168,1.519L4.206,1.499L4.243,1.478L4.281,1.458L4.319,1.438L4.357,1.418L4.395,1.398L4.433,1.379L4.472,1.36L4.51,1.341L4.548,1.322L4.587,1.304L4.626,1.286L4.664,1.268L4.703,1.251L4.742,1.233L4.781,1.216L4.82,1.199L4.859,1.183L4.898,1.167L4.938,1.151L4.977,1.135L5.016,1.119L5.056,1.104L5.096,1.089L5.135,1.074L5.175,1.059L5.215,1.045L5.255,1.031L5.295,1.017L5.335,1.004L5.375,0.99L5.415,0.977L5.455,0.964L5.495,0.952L5.536,0.939L5.576,0.927L5.616,0.915L5.657,0.904L5.697,0.893L5.738,0.881L5.779,0.871L5.819,0.86L5.86,0.85L5.901,0.84L5.942,0.83L5.983,0.82L6.023,0.811L6.064,0.802L6.105,0.793L6.147,0.784L6.188,0.776L6.229,0.768L6.27,0.76L6.311,0.752L6.352,0.745L6.394,0.738L6.435,0.731L6.476,0.725L6.518,0.718L6.559,0.712L6.601,0.706L6.642,0.701L6.684,0.695L6.725,0.69L6.767,0.685L6.808,0.681L6.85,0.676L6.891,0.672L6.933,0.668L6.975,0.665L7.016,0.661L7.058,0.658L7.1,0.655L7.141,0.653L7.183,0.65L7.225,0.648L7.267,0.647L7.308,0.645L7.35,0.644L7.392,0.642L7.434,0.642L7.475,0.641L7.517,0.641L7.559,0.64L7.601,0.641ZM7.523,1.641L7.487,1.641L7.451,1.641L7.416,1.642L7.38,1.643L7.344,1.644L7.308,1.646L7.272,1.647L7.237,1.649L7.201,1.651L7.165,1.653L7.129,1.656L7.094,1.658L7.058,1.661L7.022,1.664L6.987,1.668L6.951,1.671L6.915,1.675L6.88,1.679L6.844,1.683L6.809,1.687L6.773,1.692L6.737,1.697L6.702,1.702L6.666,1.707L6.631,1.713L6.596,1.718L6.56,1.724L6.525,1.73L6.489,1.736L6.454,1.743L6.419,1.75L6.384,1.757L6.348,1.764L6.313,1.771L6.278,1.779L6.243,1.786L6.208,1.794L6.173,1.803L6.138,1.811L6.103,1.82L6.068,1.829L6.033,1.838L5.998,1.847L5.964,1.856L5.929,1.866L5.894,1.876L5.86,1.886L5.825,1.897L5.791,1.907L5.756,1.918L5.722,1.929L5.687,1.94L5.653,1.951L5.619,1.963L5.585,1.975L5.551,1.987L5.517,1.999L5.483,2.012L5.449,2.024L5.415,2.037L5.381,2.05L5.347,2.064L5.313,2.077L5.28,2.091L5.246,2.105L5.213,2.119L5.179,2.134L5.146,2.148L5.113,2.163L5.08,2.178L5.046,2.193L5.013,2.209L4.98,2.224L4.948,2.24L4.915,2.256L4.882,2.273L4.849,2.289L4.817,2.306L4.784,2.323L4.752,2.34L4.72,2.357L4.687,2.375L4.655,2.393L4.623,2.411L4.591,2.429L4.559,2.447L4.527,2.466L4.496,2.485L4.464,2.504L4.433,2.523L4.401,2.543L4.37,2.563L4.339,2.582L4.307,2.603L4.276,2.623L4.245,2.644L4.215,2.664L4.184,2.685L4.153,2.707L4.123,2.728L4.092,2.75L4.062,2.772L4.032,2.794L4.001,2.816L3.971,2.838L3.942,2.861L3.912,2.884L3.882,2.907L3.852,2.931L3.823,2.954L3.794,2.978L3.764,3.002L3.735,3.026L3.706,3.051L3.677,3.075L3.649,3.1L3.62,3.125L3.591,3.15L3.563,3.176L3.535,3.202L3.506,3.228L3.478,3.254L3.451,3.28L3.423,3.307L3.395,3.334L3.367,3.361L3.34,3.388L3.313,3.415L3.286,3.443L3.259,3.471L3.232,3.498L3.206,3.526L3.18,3.554L3.154,3.582L3.128,3.611L3.103,3.639L3.077,3.668L3.052,3.696L3.027,3.725L3.003,3.754L2.978,3.783L2.954,3.812L2.93,3.841L2.906,3.871L2.883,3.9L2.859,3.93L2.836,3.96L2.813,3.989L2.791,4.019L2.768,4.049L2.746,4.079L2.724,4.11L2.702,4.14L2.68,4.17L2.659,4.201L2.638,4.232L2.617,4.262L2.596,4.293L2.575,4.324L2.555,4.355L2.535,4.386L2.515,4.418L2.495,4.449L2.476,4.48L2.456,4.512L2.437,4.544L2.418,4.575L2.4,4.607L2.381,4.639L2.363,4.671L2.345,4.703L2.327,4.735L2.31,4.767L2.292,4.8L2.275,4.832L2.258,4.865L2.241,4.897L2.225,4.93L2.209,4.963L2.192,4.995L2.177,5.028L2.161,5.061L2.145,5.094L2.13,5.127L2.115,5.161L2.1,5.194L2.086,5.227L2.071,5.261L2.057,5.294L2.043,5.328L2.029,5.361L2.016,5.395L2.003,5.429L1.989,5.463L1.977,5.496L1.964,5.53L1.951,5.564L1.939,5.598L1.927,5.633L1.915,5.667L1.904,5.701L1.892,5.735L1.881,5.77L1.87,5.804L1.859,5.838L1.849,5.873L1.838,5.907L1.828,5.942L1.818,5.977L1.809,6.011L1.799,6.046L1.79,6.081L1.781,6.116L1.772,6.151L1.763,6.186L1.755,6.221L1.747,6.256L1.739,6.291L1.731,6.326L1.723,6.361L1.716,6.396L1.709,6.431L1.702,6.467L1.695,6.502L1.689,6.537L1.682,6.573L1.676,6.608L1.67,6.643L1.665,6.679L1.659,6.714L1.654,6.75L1.649,6.785L1.644,6.821L1.64,6.856L1.635,6.892L1.631,6.928L1.627,6.963L1.623,6.999L1.62,7.034L1.617,7.07L1.614,7.106L1.611,7.142L1.608,7.177L1.606,7.213L1.603,7.249L1.601,7.284L1.599,7.32L1.598,7.356L1.596,7.392L1.595,7.428L1.594,7.463L1.594,7.499L1.593,7.535L1.593,7.571L1.593,7.607L1.593,7.642L1.593,7.678L1.594,7.714L1.594,7.75L1.595,7.786L1.596,7.821L1.598,7.857L1.599,7.893L1.601,7.929L1.603,7.964L1.606,8L1.608,8.036L1.611,8.072L1.614,8.107L1.617,8.143L1.62,8.179L1.623,8.214L1.627,8.25L1.631,8.286L1.635,8.321L1.64,8.357L1.644,8.392L1.649,8.428L1.654,8.463L1.659,8.499L1.665,8.534L1.67,8.57L1.676,8.605L1.682,8.641L1.689,8.676L1.695,8.711L1.702,8.747L1.709,8.782L1.716,8.817L1.723,8.852L1.731,8.887L1.739,8.922L1.747,8.957L1.755,8.993L1.763,9.027L1.772,9.062L1.781,9.097L1.79,9.132L1.799,9.167L1.809,9.202L1.818,9.236L1.828,9.271L1.838,9.306L1.849,9.34L1.859,9.375L1.87,9.409L1.881,9.444L1.892,9.478L1.904,9.512L1.915,9.547L1.927,9.581L1.939,9.615L1.951,9.649L1.964,9.683L1.977,9.717L1.989,9.751L2.003,9.785L2.016,9.818L2.029,9.852L2.043,9.886L2.057,9.919L2.071,9.953L2.086,9.986L2.1,10.019L2.115,10.053L2.13,10.086L2.145,10.119L2.161,10.152L2.177,10.185L2.192,10.218L2.209,10.251L2.225,10.283L2.241,10.316L2.258,10.349L2.275,10.381L2.292,10.413L2.31,10.446L2.327,10.478L2.345,10.51L2.363,10.542L2.381,10.574L2.4,10.606L2.418,10.638L2.437,10.67L2.456,10.701L2.476,10.733L2.495,10.764L2.515,10.796L2.535,10.827L2.555,10.858L2.575,10.889L2.596,10.92L2.617,10.951L2.638,10.982L2.659,11.012L2.68,11.043L2.702,11.073L2.724,11.104L2.746,11.134L2.768,11.164L2.791,11.194L2.813,11.224L2.836,11.254L2.859,11.283L2.883,11.313L2.906,11.342L2.93,11.372L2.954,11.401L2.978,11.43L3.003,11.459L3.027,11.488L3.052,11.517L3.077,11.545L3.103,11.574L3.128,11.602L3.154,11.631L3.18,11.659L3.206,11.687L3.232,11.715L3.259,11.743L3.286,11.77L3.313,11.798L3.34,11.825L3.367,11.853L3.395,11.88L3.423,11.906L3.451,11.933L3.478,11.959L3.506,11.986L3.535,12.012L3.563,12.037L3.591,12.063L3.62,12.088L3.649,12.113L3.677,12.138L3.706,12.163L3.735,12.187L3.764,12.211L3.794,12.235L3.823,12.259L3.852,12.283L3.882,12.306L3.912,12.329L3.942,12.352L3.971,12.375L4.001,12.397L4.032,12.42L4.062,12.442L4.092,12.464L4.123,12.485L4.153,12.507L4.184,12.528L4.215,12.549L4.245,12.57L4.276,12.59L4.307,12.611L4.339,12.631L4.37,12.651L4.401,12.67L4.433,12.69L4.464,12.709L4.496,12.728L4.527,12.747L4.559,12.766L4.591,12.784L4.623,12.802L4.655,12.82L4.687,12.838L4.72,12.856L4.752,12.873L4.784,12.89L4.817,12.907L4.849,12.924L4.882,12.941L4.915,12.957L4.948,12.973L4.98,12.989L5.013,13.005L5.047,13.02L5.08,13.035L5.113,13.05L5.146,13.065L5.179,13.08L5.213,13.094L5.246,13.108L5.28,13.122L5.313,13.136L5.347,13.15L5.381,13.163L5.415,13.176L5.449,13.189L5.483,13.202L5.517,13.214L5.551,13.226L5.585,13.238L5.619,13.25L5.653,13.262L5.687,13.273L5.722,13.284L5.756,13.295L5.791,13.306L5.825,13.317L5.86,13.327L5.894,13.337L5.929,13.347L5.964,13.357L5.998,13.366L6.033,13.376L6.068,13.385L6.103,13.393L6.138,13.402L6.173,13.411L6.208,13.419L6.243,13.427L6.278,13.435L6.313,13.442L6.348,13.449L6.384,13.457L6.419,13.464L6.454,13.47L6.489,13.477L6.525,13.483L6.56,13.489L6.596,13.495L6.631,13.501L6.666,13.506L6.702,13.511L6.737,13.516L6.773,13.521L6.809,13.526L6.844,13.53L6.88,13.534L6.915,13.538L6.951,13.542L6.987,13.545L7.022,13.549L7.058,13.552L7.094,13.555L7.129,13.557L7.165,13.56L7.201,13.562L7.237,13.564L7.272,13.566L7.308,13.568L7.344,13.569L7.38,13.57L7.416,13.571L7.451,13.572L7.487,13.572L7.523,13.573L7.559,13.573L7.595,13.573L7.63,13.572L7.666,13.572L7.702,13.571L7.738,13.57L7.774,13.569L7.809,13.568L7.845,13.566L7.881,13.564L7.917,13.562L7.952,13.56L7.988,13.557L8.024,13.555L8.06,13.552L8.095,13.549L8.131,13.545L8.167,13.542L8.202,13.538L8.238,13.534L8.273,13.53L8.309,13.526L8.345,13.521L8.38,13.516L8.416,13.511L8.451,13.506L8.487,13.501L8.522,13.495L8.557,13.489L8.593,13.483L8.628,13.477L8.663,13.47L8.699,13.464L8.734,13.457L8.769,13.449L8.804,13.442L8.84,13.435L8.875,13.427L8.91,13.419L8.945,13.411L8.98,13.402L9.015,13.393L9.05,13.385L9.084,13.376L9.119,13.366L9.154,13.357L9.189,13.347L9.223,13.337L9.258,13.327L9.292,13.317L9.327,13.306L9.361,13.295L9.396,13.284L9.43,13.273L9.464,13.262L9.499,13.25L9.533,13.238L9.567,13.226L9.601,13.214L9.635,13.202L9.669,13.189L9.703,13.176L9.737,13.163L9.77,13.15L9.804,13.136L9.838,13.122L9.871,13.108L9.905,13.094L9.938,13.08L9.972,13.065L10.005,13.05L10.038,13.035L10.071,13.02L10.104,13.005L10.137,12.989L10.17,12.973L10.203,12.957L10.236,12.941L10.268,12.924L10.301,12.907L10.333,12.89L10.366,12.873L10.398,12.856L10.43,12.838L10.462,12.82L10.494,12.802L10.526,12.784L10.558,12.766L10.59,12.747L10.622,12.728L10.653,12.709L10.685,12.69L10.716,12.67L10.748,12.651L10.779,12.631L10.81,12.611L10.841,12.59L10.872,12.57L10.903,12.549L10.934,12.528L10.964,12.507L10.995,12.485L11.025,12.464L11.056,12.442L11.086,12.42L11.116,12.397L11.146,12.375L11.176,12.352L11.206,12.329L11.236,12.306L11.265,12.283L11.295,12.259L11.324,12.235L11.353,12.211L11.382,12.187L11.411,12.163L11.44,12.138L11.469,12.113L11.498,12.088L11.526,12.063L11.555,12.037L11.583,12.012L11.611,11.986L11.639,11.959L11.667,11.933L11.695,11.906L11.723,11.88L11.75,11.853L11.778,11.825L11.805,11.798L11.832,11.77L11.859,11.743L11.885,11.715L11.912,11.687L11.938,11.659L11.964,11.631L11.989,11.602L12.015,11.574L12.04,11.545L12.065,11.517L12.09,11.488L12.115,11.459L12.139,11.43L12.164,11.401L12.188,11.372L12.211,11.342L12.235,11.313L12.258,11.283L12.281,11.254L12.304,11.224L12.327,11.194L12.35,11.164L12.372,11.134L12.394,11.104L12.416,11.073L12.437,11.043L12.459,11.012L12.48,10.982L12.501,10.951L12.522,10.92L12.542,10.889L12.563,10.858L12.583,10.827L12.603,10.796L12.623,10.764L12.642,10.733L12.661,10.701L12.68,10.67L12.699,10.638L12.718,10.606L12.736,10.574L12.755,10.542L12.773,10.51L12.79,10.478L12.808,10.446L12.825,10.413L12.843,10.381L12.86,10.349L12.876,10.316L12.893,10.283L12.909,10.251L12.925,10.218L12.941,10.185L12.957,10.152L12.972,10.119L12.987,10.086L13.002,10.053L13.017,10.019L13.032,9.986L13.046,9.953L13.06,9.919L13.074,9.886L13.088,9.852L13.102,9.818L13.115,9.785L13.128,9.751L13.141,9.717L13.154,9.683L13.166,9.649L13.178,9.615L13.191,9.581L13.202,9.547L13.214,9.512L13.225,9.478L13.237,9.444L13.248,9.409L13.258,9.375L13.269,9.34L13.279,9.306L13.289,9.271L13.299,9.236L13.309,9.202L13.318,9.167L13.328,9.132L13.337,9.097L13.346,9.062L13.354,9.027L13.363,8.993L13.371,8.957L13.379,8.922L13.387,8.887L13.394,8.852L13.402,8.817L13.409,8.782L13.416,8.747L13.422,8.711L13.429,8.676L13.435,8.641L13.441,8.605L13.447,8.57L13.453,8.534L13.458,8.499L13.464,8.463L13.469,8.428L13.473,8.392L13.478,8.357L13.482,8.321L13.486,8.286L13.49,8.25L13.494,8.214L13.498,8.179L13.501,8.143L13.504,8.107L13.507,8.072L13.51,8.036L13.512,8L13.514,7.964L13.516,7.929L13.518,7.893L13.52,7.857L13.521,7.821L13.522,7.786L13.523,7.75L13.524,7.714L13.525,7.678L13.525,7.642L13.525,7.607L13.525,7.571L13.525,7.535L13.524,7.499L13.523,7.463L13.522,7.428L13.521,7.392L13.52,7.356L13.518,7.32L13.516,7.284L13.514,7.249L13.512,7.213L13.51,7.177L13.507,7.142L13.504,7.106L13.501,7.07L13.498,7.034L13.494,6.999L13.49,6.963L13.486,6.928L13.482,6.892L13.478,6.856L13.473,6.821L13.469,6.785L13.464,6.75L13.458,6.714L13.453,6.679L13.447,6.643L13.441,6.608L13.435,6.573L13.429,6.537L13.422,6.502L13.416,6.467L13.409,6.431L13.402,6.396L13.394,6.361L13.387,6.326L13.379,6.291L13.371,6.256L13.363,6.221L13.354,6.186L13.346,6.151L13.337,6.116L13.328,6.081L13.318,6.046L13.309,6.011L13.299,5.977L13.289,5.942L13.279,5.907L13.269,5.873L13.258,5.838L13.248,5.804L13.237,5.77L13.225,5.735L13.214,5.701L13.202,5.667L13.191,5.632L13.178,5.598L13.166,5.564L13.154,5.53L13.141,5.496L13.128,5.463L13.115,5.429L13.102,5.395L13.088,5.361L13.074,5.328L13.06,5.294L13.046,5.261L13.032,5.227L13.017,5.194L13.002,5.161L12.987,5.127L12.972,5.094L12.957,5.061L12.941,5.028L12.925,4.995L12.909,4.963L12.893,4.93L12.876,4.897L12.86,4.865L12.843,4.832L12.825,4.8L12.808,4.767L12.79,4.735L12.773,4.703L12.755,4.671L12.736,4.639L12.718,4.607L12.699,4.575L12.68,4.544L12.661,4.512L12.642,4.48L12.623,4.449L12.603,4.418L12.583,4.386L12.563,4.355L12.542,4.324L12.522,4.293L12.501,4.262L12.48,4.232L12.459,4.201L12.437,4.17L12.416,4.14L12.394,4.11L12.372,4.079L12.35,4.049L12.327,4.019L12.304,3.989L12.281,3.96L12.258,3.93L12.235,3.9L12.211,3.871L12.188,3.841L12.164,3.812L12.139,3.783L12.115,3.754L12.09,3.725L12.065,3.696L12.04,3.668L12.015,3.639L11.989,3.611L11.964,3.582L11.938,3.554L11.912,3.526L11.885,3.498L11.859,3.47L11.832,3.443L11.805,3.415L11.778,3.388L11.75,3.361L11.723,3.334L11.695,3.307L11.667,3.28L11.639,3.254L11.611,3.228L11.583,3.202L11.555,3.176L11.526,3.15L11.498,3.125L11.469,3.1L11.44,3.075L11.411,3.051L11.382,3.026L11.353,3.002L11.324,2.978L11.295,2.954L11.265,2.931L11.236,2.907L11.206,2.884L11.176,2.861L11.146,2.838L11.116,2.816L11.086,2.794L11.056,2.772L11.025,2.75L10.995,2.728L10.964,2.707L10.934,2.685L10.903,2.664L10.872,2.644L10.841,2.623L10.81,2.603L10.779,2.582L10.748,2.563L10.716,2.543L10.685,2.523L10.653,2.504L10.622,2.485L10.59,2.466L10.558,2.447L10.526,2.429L10.494,2.411L10.462,2.393L10.43,2.375L10.398,2.357L10.366,2.34L10.333,2.323L10.301,2.306L10.268,2.289L10.236,2.273L10.203,2.256L10.17,2.24L10.137,2.224L10.104,2.209L10.071,2.193L10.038,2.178L10.005,2.163L9.972,2.148L9.938,2.134L9.905,2.119L9.871,2.105L9.838,2.091L9.804,2.077L9.77,2.064L9.737,2.05L9.703,2.037L9.669,2.024L9.635,2.012L9.601,1.999L9.567,1.987L9.533,1.975L9.499,1.963L9.464,1.951L9.43,1.94L9.396,1.929L9.361,1.918L9.327,1.907L9.292,1.897L9.258,1.886L9.223,1.876L9.189,1.866L9.154,1.856L9.119,1.847L9.084,1.838L9.05,1.829L9.015,1.82L8.98,1.811L8.945,1.803L8.91,1.794L8.875,1.786L8.84,1.779L8.804,1.771L8.769,1.764L8.734,1.757L8.699,1.75L8.663,1.743L8.628,1.736L8.593,1.73L8.557,1.724L8.522,1.718L8.487,1.713L8.451,1.707L8.416,1.702L8.38,1.697L8.345,1.692L8.309,1.687L8.273,1.683L8.238,1.679L8.202,1.675L8.167,1.671L8.131,1.668L8.095,1.664L8.06,1.661L8.024,1.658L7.988,1.656L7.952,1.653L7.917,1.651L7.881,1.649L7.845,1.647L7.809,1.646L7.774,1.644L7.738,1.643L7.702,1.642L7.666,1.641L7.63,1.641L7.595,1.641L7.559,1.64L7.523,1.641Z" style="fill:white;"/>
    </g>
    <g transform="matrix(5.79064,0,0,5.79064,-1.65463,-1.00356)">
        <path d="M17.455,16.475L16.748,17.183L11.795,12.23L12.502,11.523L17.455,16.475Z" style="fill:white;"/>
    </g>
</svg>
