<?xml version="1.0" encoding="UTF-8" standalone="no"?>
<!DOCTYPE svg PUBLIC "-//W3C//DTD SVG 1.1//EN" "http://www.w3.org/Graphics/SVG/1.1/DTD/svg11.dtd">
<svg width="100%" height="100%" viewBox="0 0 100 100" version="1.1" xmlns="http://www.w3.org/2000/svg" xmlns:xlink="http://www.w3.org/1999/xlink" xml:space="preserve" style="fill-rule:evenodd;clip-rule:evenodd;stroke-linecap:round;stroke-linejoin:round;stroke-miterlimit:1.5;">
    <g id="Trim">
        <g transform="matrix(3.4075,3.4075,-3.4075,3.4075,42.881,-13.3569)">
            <path d="M3.021,3L3.055,2.967L3.089,2.933L3.124,2.9L3.159,2.867L3.194,2.835L3.229,2.802L3.264,2.77L3.3,2.738L3.336,2.707L3.371,2.675L3.407,2.644L3.443,2.613L3.48,2.583L3.516,2.553L3.553,2.523L3.589,2.493L3.626,2.463L3.663,2.434L3.7,2.405L3.738,2.376L3.775,2.348L3.813,2.32L3.85,2.292L3.888,2.264L3.926,2.237L3.964,2.21L4.003,2.183L4.041,2.156L4.08,2.13L4.118,2.104L4.157,2.078L4.196,2.053L4.235,2.028L4.274,2.003L4.313,1.978L4.353,1.953L4.392,1.929L4.432,1.905L4.472,1.882L4.511,1.858L4.551,1.835L4.592,1.812L4.632,1.79L4.672,1.767L4.712,1.745L4.753,1.724L4.794,1.702L4.834,1.681L4.875,1.66L4.916,1.639L4.957,1.619L4.998,1.599L5.04,1.579L5.081,1.559L5.122,1.54L5.164,1.521L5.205,1.502L5.247,1.483L5.289,1.465L5.331,1.447L5.373,1.429L5.415,1.412L5.457,1.394L5.499,1.377L5.541,1.361L5.584,1.344L5.626,1.328L5.669,1.312L5.711,1.297L5.754,1.281L5.797,1.266L5.84,1.251L5.882,1.237L5.925,1.222L5.968,1.208L6.011,1.195L6.055,1.181L6.098,1.168L6.141,1.155L6.184,1.142L6.228,1.13L6.271,1.118L6.315,1.106L6.358,1.094L6.402,1.083L6.446,1.072L6.489,1.061L6.533,1.05L6.577,1.04L6.621,1.03L6.665,1.02L6.709,1.011L6.753,1.002L6.797,0.993L6.841,0.984L6.885,0.976L6.929,0.968L6.973,0.96L7.018,0.952L7.062,0.945L7.106,0.938L7.15,0.931L7.195,0.924L7.239,0.918L7.284,0.912L7.328,0.906L7.373,0.901L7.417,0.896L7.462,0.891L7.506,0.886L7.551,0.882L7.595,0.878L7.64,0.874L7.685,0.87L7.729,0.867L7.774,0.864L7.819,0.861L7.863,0.858L7.908,0.856L7.953,0.854L7.997,0.852L8.042,0.851L8.087,0.85L8.132,0.849L8.176,0.848L8.221,0.848L8.266,0.848L8.311,0.848L8.355,0.848L8.4,0.849L8.445,0.85L8.49,0.851L8.534,0.852L8.579,0.854L8.624,0.856L8.668,0.858L8.713,0.861L8.758,0.864L8.802,0.867L8.847,0.87L8.892,0.874L8.936,0.878L8.981,0.882L9.026,0.886L9.07,0.891L9.115,0.896L9.159,0.901L9.204,0.906L9.248,0.912L9.293,0.918L9.337,0.924L9.381,0.931L9.426,0.938L9.47,0.945L9.514,0.952L9.558,0.96L9.603,0.968L9.647,0.976L9.691,0.984L9.735,0.993L9.779,1.002L9.823,1.011L9.867,1.02L9.911,1.03L9.955,1.04L9.999,1.05L10.042,1.061L10.086,1.072L10.13,1.083L10.173,1.094L10.217,1.106L10.261,1.118L10.304,1.13L10.347,1.142L10.391,1.155L10.434,1.168L10.477,1.181L10.52,1.195L10.563,1.208L10.606,1.222L10.649,1.237L10.692,1.251L10.735,1.266L10.778,1.281L10.821,1.297L10.863,1.312L10.906,1.328L10.948,1.344L10.99,1.361L11.033,1.377L11.075,1.394L11.117,1.412L11.159,1.429L11.201,1.447L11.243,1.465L11.285,1.483L11.326,1.502L11.368,1.521L11.41,1.54L11.451,1.559L11.492,1.579L11.533,1.599L11.575,1.619L11.616,1.639L11.657,1.66L11.697,1.681L11.738,1.702L11.779,1.724L11.819,1.745L11.86,1.767L11.9,1.79L11.94,1.812L11.98,1.835L12.02,1.858L12.06,1.882L12.1,1.905L12.14,1.929L12.179,1.953L12.218,1.978L12.258,2.003L12.297,2.028L12.336,2.053L12.375,2.078L12.414,2.104L12.452,2.13L12.491,2.156L12.529,2.183L12.567,2.21L12.606,2.237L12.644,2.264L12.681,2.292L12.719,2.32L12.757,2.348L12.794,2.376L12.831,2.405L12.869,2.434L12.906,2.463L12.942,2.493L12.979,2.523L13.016,2.553L13.052,2.583L13.088,2.613L13.125,2.644L13.16,2.675L13.196,2.707L13.232,2.738L13.267,2.77L13.303,2.802L13.338,2.835L13.373,2.867L13.408,2.9L13.442,2.933L13.477,2.967L13.511,3L13.545,3.034L13.579,3.068L13.613,3.103L13.646,3.137L13.68,3.172L13.712,3.207L13.745,3.242L13.777,3.277L13.81,3.312L13.841,3.348L13.873,3.383L13.904,3.419L13.935,3.455L13.966,3.491L13.997,3.527L14.027,3.564L14.057,3.6L14.087,3.637L14.116,3.674L14.145,3.711L14.174,3.748L14.203,3.785L14.232,3.823L14.26,3.861L14.288,3.898L14.315,3.936L14.343,3.974L14.37,4.012L14.397,4.05L14.423,4.089L14.449,4.127L14.476,4.166L14.501,4.205L14.527,4.244L14.552,4.283L14.577,4.322L14.602,4.361L14.626,4.401L14.65,4.44L14.674,4.48L14.698,4.519L14.721,4.559L14.744,4.599L14.767,4.639L14.79,4.68L14.812,4.72L14.834,4.76L14.856,4.801L14.878,4.841L14.899,4.882L14.92,4.923L14.94,4.964L14.961,5.005L14.981,5.046L15.001,5.087L15.021,5.129L15.04,5.17L15.059,5.212L15.078,5.253L15.097,5.295L15.115,5.337L15.133,5.379L15.151,5.421L15.168,5.463L15.185,5.505L15.202,5.547L15.219,5.589L15.235,5.632L15.252,5.674L15.267,5.716L15.283,5.759L15.298,5.802L15.314,5.845L15.328,5.887L15.343,5.93L15.357,5.973L15.371,6.016L15.385,6.059L15.398,6.102L15.412,6.146L15.425,6.189L15.437,6.232L15.45,6.276L15.462,6.319L15.474,6.363L15.485,6.406L15.497,6.45L15.508,6.493L15.519,6.537L15.529,6.581L15.539,6.625L15.549,6.669L15.559,6.713L15.569,6.756L15.578,6.8L15.587,6.845L15.596,6.889L15.604,6.933L15.612,6.977L15.62,7.021L15.628,7.065L15.635,7.11L15.642,7.154L15.649,7.198L15.655,7.243L15.662,7.287L15.668,7.331L15.673,7.376L15.679,7.42L15.684,7.465L15.689,7.509L15.694,7.554L15.698,7.599L15.702,7.643L15.706,7.688L15.71,7.732L15.713,7.777L15.716,7.822L15.719,7.866L15.721,7.911L15.724,7.956L15.726,8.001L15.727,8.045L15.729,8.09L15.73,8.135L15.731,8.179L15.732,8.224L15.732,8.269L15.732,8.314L15.732,8.358L15.732,8.403L15.731,8.448L15.73,8.493L15.729,8.537L15.727,8.582L15.726,8.627L15.724,8.672L15.721,8.716L15.719,8.761L15.716,8.806L15.713,8.85L15.71,8.895L15.706,8.94L15.702,8.984L15.698,9.029L15.694,9.073L15.689,9.118L15.684,9.162L15.679,9.207L15.673,9.251L15.668,9.296L15.662,9.34L15.655,9.385L15.649,9.429L15.642,9.473L15.635,9.518L15.628,9.562L15.62,9.606L15.612,9.651L15.604,9.695L15.596,9.739L15.587,9.783L15.578,9.827L15.569,9.871L15.559,9.915L15.549,9.959L15.539,10.003L15.529,10.046L15.519,10.09L15.508,10.134L15.497,10.178L15.485,10.221L15.474,10.265L15.462,10.308L15.45,10.352L15.437,10.395L15.425,10.439L15.412,10.482L15.398,10.525L15.385,10.568L15.371,10.611L15.357,10.654L15.343,10.697L15.328,10.74L15.314,10.783L15.298,10.826L15.283,10.868L15.267,10.911L15.252,10.953L15.235,10.996L15.219,11.038L15.202,11.081L15.185,11.123L15.168,11.165L15.151,11.207L15.133,11.249L15.115,11.291L15.097,11.333L15.078,11.374L15.059,11.416L15.04,11.457L15.021,11.499L15.001,11.54L14.981,11.581L14.961,11.622L14.94,11.663L14.92,11.704L14.899,11.745L14.878,11.786L14.856,11.827L14.834,11.867L14.812,11.908L14.79,11.948L14.767,11.988L14.744,12.028L14.721,12.068L14.698,12.108L14.674,12.148L14.65,12.187L14.626,12.227L14.602,12.266L14.577,12.306L14.552,12.345L14.527,12.384L14.501,12.423L14.476,12.461L14.449,12.5L14.423,12.539L14.397,12.577L14.37,12.615L14.343,12.653L14.315,12.691L14.288,12.729L14.26,12.767L14.232,12.804L14.203,12.842L14.174,12.879L14.145,12.916L14.116,12.953L14.087,12.99L14.057,13.027L14.027,13.064L13.997,13.1L13.966,13.136L13.935,13.172L13.904,13.208L13.873,13.244L13.841,13.28L13.81,13.315L13.777,13.35L13.745,13.386L13.712,13.421L13.68,13.455L13.646,13.49L13.613,13.525L13.579,13.559L13.545,13.593L13.511,13.627L13.477,13.661L13.442,13.694L13.408,13.727L13.373,13.76L13.338,13.793L13.303,13.825L13.267,13.857L13.232,13.889L13.196,13.921L13.16,13.952L13.125,13.983L13.088,14.014L13.052,14.045L13.016,14.075L12.979,14.105L12.942,14.135L12.906,14.164L12.869,14.193L12.831,14.222L12.794,14.251L12.757,14.279L12.719,14.308L12.681,14.335L12.644,14.363L12.606,14.39L12.567,14.418L12.529,14.444L12.491,14.471L12.452,14.497L12.414,14.523L12.375,14.549L12.336,14.575L12.297,14.6L12.258,14.625L12.218,14.65L12.179,14.674L12.14,14.698L12.1,14.722L12.06,14.746L12.02,14.769L11.98,14.792L11.94,14.815L11.9,14.838L11.86,14.86L11.819,14.882L11.779,14.904L11.738,14.925L11.697,14.947L11.657,14.968L11.616,14.988L11.575,15.009L11.534,15.029L11.492,15.049L11.451,15.068L11.41,15.088L11.368,15.107L11.326,15.126L11.285,15.144L11.243,15.163L11.201,15.181L11.159,15.198L11.117,15.216L11.075,15.233L11.033,15.25L10.99,15.267L10.948,15.283L10.906,15.299L10.863,15.315L10.821,15.331L10.778,15.346L10.735,15.361L10.692,15.376L10.649,15.391L10.606,15.405L10.563,15.419L10.52,15.433L10.477,15.446L10.434,15.46L10.391,15.472L10.347,15.485L10.304,15.498L10.261,15.51L10.217,15.522L10.173,15.533L10.13,15.545L10.086,15.556L10.042,15.566L9.999,15.577L9.955,15.587L9.911,15.597L9.867,15.607L9.823,15.616L9.779,15.626L9.735,15.635L9.691,15.643L9.647,15.652L9.603,15.66L9.558,15.668L9.514,15.675L9.47,15.683L9.426,15.69L9.381,15.697L9.337,15.703L9.293,15.709L9.248,15.715L9.204,15.721L9.159,15.727L9.115,15.732L9.07,15.737L9.026,15.741L8.981,15.746L8.936,15.75L8.892,15.754L8.847,15.757L8.803,15.761L8.758,15.764L8.713,15.767L8.668,15.769L8.624,15.771L8.579,15.773L8.534,15.775L8.49,15.777L8.445,15.778L8.4,15.779L8.355,15.779L8.311,15.78L8.266,15.78L8.221,15.78L8.176,15.779L8.132,15.779L8.087,15.778L8.042,15.777L7.997,15.775L7.953,15.773L7.908,15.771L7.863,15.769L7.819,15.767L7.774,15.764L7.729,15.761L7.685,15.757L7.64,15.754L7.595,15.75L7.551,15.746L7.506,15.741L7.462,15.737L7.417,15.732L7.373,15.727L7.328,15.721L7.284,15.715L7.239,15.709L7.195,15.703L7.15,15.697L7.106,15.69L7.062,15.683L7.018,15.675L6.973,15.668L6.929,15.66L6.885,15.652L6.841,15.643L6.797,15.635L6.753,15.626L6.709,15.616L6.665,15.607L6.621,15.597L6.577,15.587L6.533,15.577L6.489,15.566L6.446,15.556L6.402,15.545L6.358,15.533L6.315,15.522L6.271,15.51L6.228,15.498L6.184,15.485L6.141,15.472L6.098,15.46L6.055,15.446L6.011,15.433L5.968,15.419L5.925,15.405L5.882,15.391L5.84,15.376L5.797,15.361L5.754,15.346L5.711,15.331L5.669,15.315L5.626,15.299L5.584,15.283L5.541,15.267L5.499,15.25L5.457,15.233L5.415,15.216L5.373,15.198L5.331,15.181L5.289,15.163L5.247,15.144L5.205,15.126L5.164,15.107L5.122,15.088L5.081,15.068L5.04,15.049L4.998,15.029L4.957,15.009L4.916,14.988L4.875,14.968L4.834,14.947L4.794,14.925L4.753,14.904L4.712,14.882L4.672,14.86L4.632,14.838L4.592,14.815L4.551,14.792L4.511,14.769L4.472,14.746L4.432,14.722L4.392,14.698L4.353,14.674L4.313,14.65L4.274,14.625L4.235,14.6L4.196,14.575L4.157,14.549L4.118,14.523L4.08,14.497L4.041,14.471L4.003,14.444L3.964,14.418L3.926,14.39L3.888,14.363L3.85,14.335L3.813,14.308L3.775,14.279L3.738,14.251L3.7,14.222L3.663,14.193L3.626,14.164L3.589,14.135L3.553,14.105L3.516,14.075L3.48,14.045L3.443,14.014L3.407,13.983L3.371,13.952L3.336,13.921L3.3,13.889L3.264,13.857L3.229,13.825L3.194,13.793L3.159,13.76L3.124,13.727L3.089,13.694L3.055,13.661L3.021,13.627L2.987,13.593L2.953,13.559L2.919,13.525L2.885,13.49L2.852,13.455L2.819,13.421L2.787,13.386L2.754,13.35L2.722,13.315L2.69,13.28L2.659,13.244L2.627,13.208L2.596,13.172L2.566,13.136L2.535,13.1L2.505,13.064L2.475,13.027L2.445,12.99L2.416,12.953L2.386,12.916L2.357,12.879L2.329,12.842L2.3,12.804L2.272,12.767L2.244,12.729L2.217,12.691L2.189,12.653L2.162,12.615L2.135,12.577L2.109,12.539L2.082,12.5L2.056,12.461L2.031,12.423L2.005,12.384L1.98,12.345L1.955,12.306L1.93,12.266L1.906,12.227L1.881,12.187L1.858,12.148L1.834,12.108L1.81,12.068L1.787,12.028L1.765,11.988L1.742,11.948L1.72,11.908L1.698,11.867L1.676,11.827L1.654,11.786L1.633,11.745L1.612,11.704L1.591,11.663L1.571,11.622L1.551,11.581L1.531,11.54L1.511,11.499L1.492,11.457L1.473,11.416L1.454,11.374L1.435,11.333L1.417,11.291L1.399,11.249L1.381,11.207L1.364,11.165L1.346,11.123L1.33,11.081L1.313,11.038L1.296,10.996L1.28,10.953L1.264,10.911L1.249,10.868L1.233,10.826L1.218,10.783L1.203,10.74L1.189,10.697L1.175,10.654L1.161,10.611L1.147,10.568L1.133,10.525L1.12,10.482L1.107,10.439L1.094,10.395L1.082,10.352L1.07,10.308L1.058,10.265L1.046,10.221L1.035,10.178L1.024,10.134L1.013,10.09L1.003,10.047L0.992,10.003L0.982,9.959L0.973,9.915L0.963,9.871L0.954,9.827L0.945,9.783L0.936,9.739L0.928,9.695L0.92,9.65L0.912,9.606L0.904,9.562L0.897,9.518L0.89,9.473L0.883,9.429L0.877,9.385L0.87,9.34L0.864,9.296L0.859,9.251L0.853,9.207L0.848,9.162L0.843,9.118L0.838,9.073L0.834,9.029L0.83,8.984L0.826,8.94L0.822,8.895L0.819,8.85L0.816,8.806L0.813,8.761L0.811,8.716L0.808,8.672L0.806,8.627L0.805,8.582L0.803,8.537L0.802,8.493L0.801,8.448L0.8,8.403L0.8,8.358L0.8,8.314L0.8,8.269L0.8,8.224L0.801,8.179L0.802,8.135L0.803,8.09L0.805,8.045L0.806,8.001L0.808,7.956L0.811,7.911L0.813,7.866L0.816,7.822L0.819,7.777L0.822,7.732L0.826,7.688L0.83,7.643L0.834,7.599L0.838,7.554L0.843,7.509L0.848,7.465L0.853,7.42L0.859,7.376L0.864,7.331L0.87,7.287L0.877,7.243L0.883,7.198L0.89,7.154L0.897,7.11L0.904,7.065L0.912,7.021L0.92,6.977L0.928,6.933L0.936,6.889L0.945,6.845L0.954,6.8L0.963,6.756L0.973,6.713L0.982,6.669L0.992,6.625L1.003,6.581L1.013,6.537L1.024,6.493L1.035,6.45L1.046,6.406L1.058,6.363L1.07,6.319L1.082,6.276L1.094,6.232L1.107,6.189L1.12,6.146L1.133,6.102L1.147,6.059L1.161,6.016L1.175,5.973L1.189,5.93L1.203,5.887L1.218,5.845L1.233,5.802L1.249,5.759L1.264,5.716L1.28,5.674L1.296,5.632L1.313,5.589L1.33,5.547L1.346,5.505L1.364,5.463L1.381,5.421L1.399,5.379L1.417,5.337L1.435,5.295L1.454,5.253L1.473,5.212L1.492,5.17L1.511,5.129L1.531,5.087L1.551,5.046L1.571,5.005L1.591,4.964L1.612,4.923L1.633,4.882L1.654,4.841L1.676,4.801L1.698,4.76L1.72,4.72L1.742,4.68L1.765,4.639L1.787,4.599L1.81,4.559L1.834,4.519L1.858,4.48L1.881,4.44L1.906,4.401L1.93,4.361L1.955,4.322L1.98,4.283L2.005,4.244L2.031,4.205L2.056,4.166L2.082,4.127L2.109,4.089L2.135,4.05L2.162,4.012L2.189,3.974L2.217,3.936L2.244,3.898L2.272,3.861L2.3,3.823L2.329,3.785L2.357,3.748L2.386,3.711L2.416,3.674L2.445,3.637L2.475,3.6L2.505,3.564L2.535,3.527L2.566,3.491L2.596,3.455L2.627,3.419L2.659,3.383L2.69,3.348L2.722,3.312L2.754,3.277L2.787,3.242L2.819,3.207L2.852,3.172L2.885,3.137L2.919,3.103L2.953,3.068L2.987,3.034L3.021,3ZM4.376,4.474L4.351,4.499L4.326,4.524L4.302,4.55L4.278,4.576L4.254,4.601L4.23,4.627L4.206,4.653L4.183,4.679L4.16,4.705L4.137,4.732L4.114,4.758L4.091,4.784L4.069,4.811L4.047,4.838L4.025,4.865L4.003,4.891L3.981,4.918L3.96,4.946L3.939,4.973L3.918,5L3.897,5.028L3.876,5.055L3.856,5.083L3.836,5.11L3.816,5.138L3.796,5.166L3.776,5.194L3.757,5.222L3.737,5.25L3.718,5.278L3.7,5.307L3.681,5.335L3.662,5.364L3.644,5.392L3.626,5.421L3.608,5.45L3.591,5.479L3.573,5.508L3.556,5.537L3.539,5.566L3.522,5.595L3.505,5.624L3.489,5.654L3.472,5.683L3.456,5.713L3.44,5.742L3.425,5.772L3.409,5.802L3.394,5.831L3.379,5.861L3.364,5.891L3.349,5.921L3.335,5.951L3.32,5.982L3.306,6.012L3.292,6.042L3.278,6.073L3.265,6.103L3.251,6.134L3.238,6.164L3.225,6.195L3.212,6.225L3.2,6.256L3.187,6.287L3.175,6.318L3.163,6.349L3.151,6.38L3.14,6.411L3.128,6.442L3.117,6.473L3.106,6.505L3.095,6.536L3.085,6.567L3.074,6.599L3.064,6.63L3.054,6.662L3.044,6.693L3.034,6.725L3.025,6.757L3.016,6.788L3.007,6.82L2.998,6.852L2.989,6.884L2.98,6.915L2.972,6.947L2.964,6.979L2.956,7.011L2.948,7.043L2.941,7.076L2.934,7.108L2.926,7.14L2.919,7.172L2.913,7.204L2.906,7.236L2.9,7.269L2.894,7.301L2.888,7.333L2.882,7.366L2.876,7.398L2.871,7.431L2.866,7.463L2.861,7.496L2.856,7.528L2.851,7.561L2.847,7.593L2.843,7.626L2.839,7.659L2.835,7.691L2.831,7.724L2.828,7.757L2.825,7.789L2.822,7.822L2.819,7.855L2.816,7.887L2.814,7.92L2.812,7.953L2.809,7.986L2.808,8.018L2.806,8.051L2.805,8.084L2.803,8.117L2.802,8.15L2.801,8.182L2.801,8.215L2.8,8.248L2.8,8.281L2.8,8.314L2.8,8.347L2.8,8.379L2.801,8.412L2.801,8.445L2.802,8.478L2.803,8.511L2.805,8.543L2.806,8.576L2.808,8.609L2.809,8.642L2.812,8.675L2.814,8.707L2.816,8.74L2.819,8.773L2.822,8.806L2.825,8.838L2.828,8.871L2.831,8.904L2.835,8.936L2.839,8.969L2.843,9.001L2.847,9.034L2.851,9.067L2.856,9.099L2.861,9.132L2.866,9.164L2.871,9.197L2.876,9.229L2.882,9.262L2.888,9.294L2.894,9.326L2.9,9.359L2.906,9.391L2.913,9.423L2.919,9.455L2.926,9.488L2.934,9.52L2.941,9.552L2.948,9.584L2.956,9.616L2.964,9.648L2.972,9.68L2.98,9.712L2.989,9.744L2.998,9.776L3.007,9.807L3.016,9.839L3.025,9.871L3.034,9.903L3.044,9.934L3.054,9.966L3.064,9.997L3.074,10.029L3.085,10.06L3.095,10.091L3.106,10.123L3.117,10.154L3.128,10.185L3.14,10.216L3.151,10.247L3.163,10.278L3.175,10.309L3.187,10.34L3.2,10.371L3.212,10.402L3.225,10.433L3.238,10.463L3.251,10.494L3.265,10.524L3.278,10.555L3.292,10.585L3.306,10.616L3.32,10.646L3.335,10.676L3.349,10.706L3.364,10.736L3.379,10.766L3.394,10.796L3.409,10.826L3.425,10.856L3.44,10.885L3.456,10.915L3.472,10.944L3.489,10.974L3.505,11.003L3.522,11.032L3.539,11.062L3.556,11.091L3.573,11.12L3.591,11.149L3.608,11.178L3.626,11.206L3.644,11.235L3.662,11.264L3.681,11.292L3.7,11.321L3.718,11.349L3.737,11.377L3.757,11.405L3.776,11.433L3.796,11.461L3.816,11.489L3.836,11.517L3.856,11.545L3.876,11.572L3.897,11.6L3.918,11.627L3.939,11.655L3.96,11.682L3.981,11.709L4.003,11.736L4.025,11.763L4.047,11.79L4.069,11.816L4.091,11.843L4.114,11.869L4.137,11.896L4.16,11.922L4.183,11.948L4.206,11.974L4.23,12L4.254,12.026L4.278,12.052L4.302,12.078L4.326,12.103L4.351,12.128L4.376,12.154L4.401,12.179L4.426,12.204L4.451,12.229L4.477,12.253L4.502,12.278L4.528,12.302L4.553,12.326L4.579,12.35L4.605,12.373L4.631,12.397L4.657,12.42L4.684,12.443L4.71,12.466L4.737,12.488L4.763,12.511L4.79,12.533L4.817,12.555L4.844,12.577L4.871,12.598L4.898,12.62L4.925,12.641L4.952,12.662L4.98,12.683L5.007,12.703L5.035,12.724L5.063,12.744L5.09,12.764L5.118,12.784L5.146,12.804L5.174,12.823L5.202,12.842L5.231,12.861L5.259,12.88L5.287,12.899L5.316,12.917L5.345,12.935L5.373,12.953L5.402,12.971L5.431,12.989L5.46,13.006L5.489,13.024L5.518,13.041L5.547,13.058L5.576,13.074L5.606,13.091L5.635,13.107L5.665,13.123L5.694,13.139L5.724,13.155L5.754,13.17L5.784,13.186L5.813,13.201L5.843,13.216L5.873,13.231L5.904,13.245L5.934,13.259L5.964,13.274L5.994,13.287L6.025,13.301L6.055,13.315L6.086,13.328L6.116,13.341L6.147,13.354L6.178,13.367L6.208,13.38L6.239,13.392L6.27,13.404L6.301,13.416L6.332,13.428L6.363,13.44L6.394,13.451L6.426,13.462L6.457,13.473L6.488,13.484L6.519,13.495L6.551,13.505L6.582,13.516L6.614,13.526L6.645,13.536L6.677,13.545L6.709,13.555L6.74,13.564L6.772,13.573L6.804,13.582L6.836,13.591L6.868,13.599L6.9,13.607L6.932,13.616L6.964,13.623L6.996,13.631L7.028,13.639L7.06,13.646L7.092,13.653L7.124,13.66L7.156,13.667L7.189,13.673L7.221,13.68L7.253,13.686L7.286,13.692L7.318,13.698L7.35,13.703L7.383,13.709L7.415,13.714L7.448,13.719L7.48,13.724L7.513,13.728L7.546,13.733L7.578,13.737L7.611,13.741L7.643,13.745L7.676,13.748L7.709,13.752L7.741,13.755L7.774,13.758L7.807,13.761L7.84,13.763L7.872,13.766L7.905,13.768L7.938,13.77L7.971,13.772L8.003,13.774L8.036,13.775L8.069,13.776L8.102,13.777L8.135,13.778L8.167,13.779L8.2,13.78L8.233,13.78L8.266,13.78L8.299,13.78L8.332,13.78L8.364,13.779L8.397,13.778L8.43,13.777L8.463,13.776L8.496,13.775L8.528,13.774L8.561,13.772L8.594,13.77L8.627,13.768L8.66,13.766L8.692,13.763L8.725,13.761L8.758,13.758L8.79,13.755L8.823,13.752L8.856,13.748L8.888,13.745L8.921,13.741L8.954,13.737L8.986,13.733L9.019,13.728L9.051,13.724L9.084,13.719L9.116,13.714L9.149,13.709L9.181,13.703L9.214,13.698L9.246,13.692L9.279,13.686L9.311,13.68L9.343,13.673L9.375,13.667L9.408,13.66L9.44,13.653L9.472,13.646L9.504,13.639L9.536,13.631L9.568,13.623L9.6,13.616L9.632,13.607L9.664,13.599L9.696,13.591L9.728,13.582L9.76,13.573L9.791,13.564L9.823,13.555L9.855,13.545L9.886,13.536L9.918,13.526L9.949,13.516L9.981,13.505L10.012,13.495L10.044,13.484L10.075,13.473L10.106,13.462L10.137,13.451L10.169,13.44L10.2,13.428L10.231,13.416L10.262,13.404L10.292,13.392L10.323,13.38L10.354,13.367L10.385,13.354L10.415,13.341L10.446,13.328L10.477,13.315L10.507,13.301L10.537,13.287L10.568,13.274L10.598,13.259L10.628,13.245L10.658,13.231L10.688,13.216L10.718,13.201L10.748,13.186L10.778,13.17L10.808,13.155L10.837,13.139L10.867,13.123L10.897,13.107L10.926,13.091L10.955,13.074L10.985,13.058L11.014,13.041L11.043,13.024L11.072,13.006L11.101,12.989L11.13,12.971L11.159,12.953L11.187,12.935L11.216,12.917L11.244,12.899L11.273,12.88L11.301,12.861L11.329,12.842L11.358,12.823L11.386,12.804L11.414,12.784L11.442,12.764L11.469,12.744L11.497,12.724L11.525,12.703L11.552,12.683L11.58,12.662L11.607,12.641L11.634,12.62L11.661,12.598L11.688,12.577L11.715,12.555L11.742,12.533L11.769,12.511L11.795,12.488L11.822,12.466L11.848,12.443L11.874,12.42L11.9,12.397L11.927,12.373L11.953,12.35L11.978,12.326L12.004,12.302L12.03,12.278L12.055,12.253L12.081,12.229L12.106,12.204L12.131,12.179L12.156,12.154L12.181,12.128L12.206,12.103L12.23,12.078L12.254,12.052L12.278,12.026L12.302,12L12.326,11.974L12.349,11.948L12.372,11.922L12.395,11.896L12.418,11.869L12.441,11.843L12.463,11.816L12.485,11.79L12.507,11.763L12.529,11.736L12.551,11.709L12.572,11.682L12.593,11.655L12.614,11.627L12.635,11.6L12.656,11.572L12.676,11.545L12.696,11.517L12.716,11.489L12.736,11.461L12.756,11.433L12.775,11.405L12.794,11.377L12.813,11.349L12.832,11.321L12.851,11.292L12.869,11.264L12.888,11.235L12.906,11.206L12.924,11.178L12.941,11.149L12.959,11.12L12.976,11.091L12.993,11.062L13.01,11.032L13.027,11.003L13.043,10.974L13.059,10.944L13.075,10.915L13.091,10.885L13.107,10.856L13.123,10.826L13.138,10.796L13.153,10.766L13.168,10.736L13.183,10.706L13.197,10.676L13.212,10.646L13.226,10.616L13.24,10.585L13.253,10.555L13.267,10.524L13.28,10.494L13.294,10.463L13.307,10.433L13.319,10.402L13.332,10.371L13.344,10.34L13.357,10.309L13.369,10.278L13.38,10.247L13.392,10.216L13.403,10.185L13.415,10.154L13.426,10.123L13.436,10.091L13.447,10.06L13.458,10.029L13.468,9.997L13.478,9.966L13.488,9.934L13.497,9.903L13.507,9.871L13.516,9.839L13.525,9.807L13.534,9.776L13.543,9.744L13.551,9.712L13.56,9.68L13.568,9.648L13.576,9.616L13.583,9.584L13.591,9.552L13.598,9.52L13.605,9.488L13.612,9.455L13.619,9.423L13.626,9.391L13.632,9.359L13.638,9.326L13.644,9.294L13.65,9.262L13.655,9.229L13.661,9.197L13.666,9.164L13.671,9.132L13.676,9.099L13.68,9.067L13.685,9.034L13.689,9.001L13.693,8.969L13.697,8.936L13.7,8.904L13.704,8.871L13.707,8.838L13.71,8.806L13.713,8.773L13.716,8.74L13.718,8.707L13.72,8.675L13.722,8.642L13.724,8.609L13.726,8.576L13.727,8.543L13.729,8.511L13.73,8.478L13.731,8.445L13.731,8.412L13.732,8.379L13.732,8.347L13.732,8.314L13.732,8.281L13.732,8.248L13.731,8.215L13.731,8.182L13.73,8.15L13.729,8.117L13.727,8.084L13.726,8.051L13.724,8.018L13.722,7.986L13.72,7.953L13.718,7.92L13.716,7.887L13.713,7.855L13.71,7.822L13.707,7.789L13.704,7.757L13.7,7.724L13.697,7.691L13.693,7.659L13.689,7.626L13.685,7.593L13.68,7.561L13.676,7.528L13.671,7.496L13.666,7.463L13.661,7.431L13.655,7.398L13.65,7.366L13.644,7.333L13.638,7.301L13.632,7.269L13.626,7.236L13.619,7.204L13.612,7.172L13.605,7.14L13.598,7.108L13.591,7.076L13.583,7.043L13.576,7.011L13.568,6.979L13.56,6.947L13.551,6.915L13.543,6.884L13.534,6.852L13.525,6.82L13.516,6.788L13.507,6.757L13.497,6.725L13.488,6.693L13.478,6.662L13.468,6.63L13.458,6.599L13.447,6.567L13.436,6.536L13.426,6.505L13.415,6.473L13.403,6.442L13.392,6.411L13.38,6.38L13.369,6.349L13.357,6.318L13.344,6.287L13.332,6.256L13.319,6.225L13.307,6.195L13.294,6.164L13.28,6.134L13.267,6.103L13.253,6.073L13.24,6.042L13.226,6.012L13.212,5.982L13.197,5.951L13.183,5.921L13.168,5.891L13.153,5.861L13.138,5.831L13.123,5.802L13.107,5.772L13.091,5.742L13.075,5.713L13.059,5.683L13.043,5.654L13.027,5.624L13.01,5.595L12.993,5.566L12.976,5.537L12.959,5.508L12.941,5.479L12.924,5.45L12.906,5.421L12.888,5.392L12.869,5.364L12.851,5.335L12.832,5.307L12.813,5.278L12.794,5.25L12.775,5.222L12.756,5.194L12.736,5.166L12.716,5.138L12.696,5.11L12.676,5.083L12.656,5.055L12.635,5.028L12.614,5L12.593,4.973L12.572,4.946L12.551,4.918L12.529,4.891L12.507,4.865L12.485,4.838L12.463,4.811L12.441,4.784L12.418,4.758L12.395,4.732L12.372,4.705L12.349,4.679L12.326,4.653L12.302,4.627L12.278,4.601L12.254,4.576L12.23,4.55L12.206,4.524L12.181,4.499L12.156,4.474L12.131,4.449L12.106,4.424L12.081,4.399L12.055,4.374L12.03,4.35L12.004,4.325L11.978,4.301L11.953,4.278L11.927,4.254L11.9,4.231L11.874,4.207L11.848,4.184L11.822,4.162L11.795,4.139L11.769,4.117L11.742,4.094L11.715,4.072L11.688,4.051L11.661,4.029L11.634,4.008L11.607,3.986L11.58,3.965L11.552,3.945L11.525,3.924L11.497,3.904L11.469,3.883L11.442,3.863L11.414,3.844L11.386,3.824L11.358,3.804L11.329,3.785L11.301,3.766L11.273,3.747L11.244,3.729L11.216,3.71L11.187,3.692L11.159,3.674L11.13,3.656L11.101,3.638L11.072,3.621L11.043,3.604L11.014,3.587L10.985,3.57L10.955,3.553L10.926,3.537L10.897,3.52L10.867,3.504L10.837,3.488L10.808,3.473L10.778,3.457L10.748,3.442L10.718,3.427L10.688,3.412L10.658,3.397L10.628,3.382L10.598,3.368L10.568,3.354L10.537,3.34L10.507,3.326L10.477,3.313L10.446,3.299L10.416,3.286L10.385,3.273L10.354,3.26L10.323,3.248L10.293,3.235L10.262,3.223L10.231,3.211L10.2,3.199L10.169,3.188L10.137,3.176L10.106,3.165L10.075,3.154L10.044,3.143L10.012,3.132L9.981,3.122L9.949,3.112L9.918,3.102L9.886,3.092L9.855,3.082L9.823,3.073L9.791,3.063L9.76,3.054L9.728,3.045L9.696,3.037L9.664,3.028L9.632,3.02L9.6,3.012L9.568,3.004L9.536,2.996L9.504,2.989L9.472,2.981L9.44,2.974L9.408,2.967L9.375,2.961L9.343,2.954L9.311,2.948L9.278,2.941L9.246,2.936L9.214,2.93L9.181,2.924L9.149,2.919L9.116,2.914L9.084,2.909L9.051,2.904L9.019,2.899L8.986,2.895L8.954,2.891L8.921,2.887L8.888,2.883L8.856,2.879L8.823,2.876L8.79,2.873L8.758,2.87L8.725,2.867L8.692,2.864L8.66,2.862L8.627,2.859L8.594,2.857L8.561,2.855L8.528,2.854L8.496,2.852L8.463,2.851L8.43,2.85L8.397,2.849L8.364,2.848L8.332,2.848L8.299,2.848L8.266,2.848L8.233,2.848L8.2,2.848L8.167,2.848L8.135,2.849L8.102,2.85L8.069,2.851L8.036,2.852L8.003,2.854L7.971,2.855L7.938,2.857L7.905,2.859L7.872,2.862L7.84,2.864L7.807,2.867L7.774,2.87L7.741,2.873L7.709,2.876L7.676,2.879L7.643,2.883L7.611,2.887L7.578,2.891L7.546,2.895L7.513,2.899L7.48,2.904L7.448,2.909L7.415,2.914L7.383,2.919L7.35,2.924L7.318,2.93L7.286,2.936L7.253,2.941L7.221,2.948L7.189,2.954L7.156,2.961L7.124,2.967L7.092,2.974L7.06,2.981L7.028,2.989L6.996,2.996L6.964,3.004L6.932,3.012L6.9,3.02L6.868,3.028L6.836,3.037L6.804,3.045L6.772,3.054L6.74,3.063L6.709,3.073L6.677,3.082L6.645,3.092L6.614,3.102L6.582,3.112L6.551,3.122L6.519,3.132L6.488,3.143L6.457,3.154L6.426,3.165L6.394,3.176L6.363,3.188L6.332,3.199L6.301,3.211L6.27,3.223L6.239,3.235L6.208,3.248L6.178,3.26L6.147,3.273L6.116,3.286L6.086,3.299L6.055,3.313L6.025,3.326L5.994,3.34L5.964,3.354L5.934,3.368L5.904,3.382L5.874,3.397L5.843,3.412L5.813,3.427L5.784,3.442L5.754,3.457L5.724,3.473L5.694,3.488L5.665,3.504L5.635,3.52L5.606,3.537L5.576,3.553L5.547,3.57L5.518,3.587L5.489,3.604L5.46,3.621L5.431,3.638L5.402,3.656L5.373,3.674L5.345,3.692L5.316,3.71L5.287,3.729L5.259,3.747L5.231,3.766L5.202,3.785L5.174,3.804L5.146,3.824L5.118,3.844L5.09,3.863L5.063,3.883L5.035,3.904L5.007,3.924L4.98,3.945L4.952,3.965L4.925,3.986L4.898,4.008L4.871,4.029L4.844,4.051L4.817,4.072L4.79,4.094L4.763,4.117L4.737,4.139L4.71,4.162L4.684,4.184L4.657,4.207L4.631,4.231L4.605,4.254L4.579,4.278L4.553,4.301L4.528,4.325L4.502,4.35L4.477,4.374L4.451,4.399L4.426,4.424L4.401,4.449L4.376,4.474Z" style="fill:white;fill-opacity:0.501961;"/>
        </g>
        <g transform="matrix(0.707107,-0.707107,0.707107,0.707107,11.3655,67.2806)">
            <path d="M39.835,69.168L39.835,36.008" style="fill:none;stroke:white;stroke-opacity:0.501961;stroke-width:9.5px;"/>
        </g>
    </g>
</svg>
