<?xml version="1.0" encoding="UTF-8" standalone="no"?>
<!DOCTYPE svg PUBLIC "-//W3C//DTD SVG 1.1//EN" "http://www.w3.org/Graphics/SVG/1.1/DTD/svg11.dtd">
<svg width="100%" height="100%" viewBox="0 0 75 75" version="1.1" xmlns="http://www.w3.org/2000/svg" xmlns:xlink="http://www.w3.org/1999/xlink" xml:space="preserve" style="fill-rule:evenodd;clip-rule:evenodd;stroke-linejoin:round;stroke-miterlimit:1.41421;">
    <path d="M60,11C74.384,23.545 75.877,45.407 63.332,59.791C50.787,74.175 28.925,75.668 14.541,63.123C0.157,50.579 -1.336,28.716 11.209,14.332C23.754,-0.052 45.616,-1.545 60,11ZM24.447,44.327C24.814,44.327 25.033,44.147 25.104,43.787L27.857,30.44C27.871,30.371 27.878,30.294 27.878,30.211C27.878,30.101 27.836,30.004 27.751,29.921C27.666,29.838 27.567,29.796 27.454,29.796L26.438,29.796C26.127,29.796 25.951,29.914 25.908,30.149L23.727,40.985L21.398,33.512C21.285,33.18 21.059,33.014 20.72,33.014L19.979,33.014C19.626,33.014 19.407,33.18 19.322,33.512L16.971,40.985L14.79,30.149C14.748,29.914 14.578,29.796 14.282,29.796L13.244,29.796C13.131,29.796 13.032,29.838 12.947,29.921C12.863,30.004 12.82,30.101 12.82,30.211L12.863,30.44L15.595,43.787C15.679,44.147 15.898,44.327 16.251,44.327L17.035,44.327C17.388,44.327 17.614,44.154 17.713,43.808L20.36,35.816L22.986,43.808C23.099,44.154 23.332,44.327 23.685,44.327L24.447,44.327ZM31.203,29.796L30.165,29.796C30.052,29.796 29.953,29.838 29.869,29.921C29.784,30.004 29.742,30.101 29.742,30.211L29.784,30.44L32.516,43.787C32.601,44.147 32.82,44.327 33.173,44.327L33.956,44.327C34.309,44.327 34.535,44.154 34.634,43.808L37.281,35.816L39.907,43.808C40.02,44.154 40.253,44.327 40.606,44.327L41.369,44.327C41.736,44.327 41.954,44.147 42.025,43.787L44.778,30.44C44.792,30.371 44.799,30.294 44.799,30.211C44.799,30.101 44.757,30.004 44.672,29.921C44.588,29.838 44.489,29.796 44.376,29.796L43.359,29.796C43.049,29.796 42.872,29.914 42.83,30.149L40.648,40.985L38.319,33.512C38.206,33.18 37.98,33.014 37.641,33.014L36.9,33.014C36.547,33.014 36.328,33.18 36.243,33.512L33.893,40.985L31.711,30.149C31.669,29.914 31.5,29.796 31.203,29.796ZM58.29,44.327C58.657,44.327 58.876,44.147 58.946,43.787L61.7,30.44C61.714,30.371 61.721,30.294 61.721,30.211C61.721,30.101 61.678,30.004 61.594,29.921C61.509,29.838 61.41,29.796 61.297,29.796L60.281,29.796C59.97,29.796 59.793,29.914 59.751,30.149L57.57,40.985L55.24,33.512C55.127,33.18 54.901,33.014 54.562,33.014L53.821,33.014C53.468,33.014 53.249,33.18 53.165,33.512L50.814,40.985L48.633,30.149C48.59,29.914 48.421,29.796 48.124,29.796L47.087,29.796C46.974,29.796 46.875,29.838 46.79,29.921C46.705,30.004 46.663,30.101 46.663,30.211L46.705,30.44L49.437,43.787C49.522,44.147 49.741,44.327 50.094,44.327L50.878,44.327C51.231,44.327 51.456,44.154 51.555,43.808L54.202,35.816L56.829,43.808C56.942,44.154 57.174,44.327 57.527,44.327L58.29,44.327Z" style="fill:white;"/>
</svg>
