<?xml version="1.0" encoding="UTF-8" standalone="no"?>
<!DOCTYPE svg PUBLIC "-//W3C//DTD SVG 1.1//EN" "http://www.w3.org/Graphics/SVG/1.1/DTD/svg11.dtd">
<svg width="100%" height="100%" viewBox="0 0 75 75" version="1.1" xmlns="http://www.w3.org/2000/svg" xmlns:xlink="http://www.w3.org/1999/xlink" xml:space="preserve" xmlns:serif="http://www.serif.com/" style="fill-rule:evenodd;clip-rule:evenodd;stroke-linejoin:round;stroke-miterlimit:1.41421;">
    <path d="M60.229,11C74.613,23.545 76.106,45.407 63.562,59.791C51.017,74.175 29.154,75.668 14.771,63.123C0.387,50.579 -1.106,28.716 11.438,14.332C23.983,-0.052 45.846,-1.545 60.229,11ZM46.651,17.103L40.325,17.103C33.344,17.103 31.818,22.338 31.818,25.611L31.818,30.192L27.671,30.192L27.671,37.391L31.818,37.391L31.818,57.897L40.325,57.897L40.325,37.391L45.997,37.391L46.87,30.192L40.325,30.192L40.325,26.047C40.325,24.52 41.416,24.084 42.07,24.084L46.651,24.084L46.651,17.103Z" style="fill:rgb(168,169,176);"/>
</svg>
