<?xml version="1.0" encoding="UTF-8" standalone="no"?>
<!DOCTYPE svg PUBLIC "-//W3C//DTD SVG 1.1//EN" "http://www.w3.org/Graphics/SVG/1.1/DTD/svg11.dtd">
<svg width="100%" height="100%" viewBox="0 0 75 75" version="1.1" xmlns="http://www.w3.org/2000/svg" xmlns:xlink="http://www.w3.org/1999/xlink" xml:space="preserve" style="fill-rule:evenodd;clip-rule:evenodd;stroke-linejoin:round;stroke-miterlimit:1.41421;">
    <g transform="matrix(2.89463,0,0,2.89463,-32.6349,-32.5543)">
        <path d="M24,12.1C17.4,12.1 12.1,17.4 12.1,24C12.1,28.9 15,33 19.2,34.9C19.2,34.1 19.2,33.1 19.4,32.2C19.6,31.2 20.9,25.7 20.9,25.7C20.9,25.7 20.5,24.9 20.5,23.8C20.5,22 21.5,20.7 22.8,20.7C23.9,20.7 24.4,21.5 24.4,22.5C24.4,23.6 23.7,25.2 23.4,26.7C23.1,28 24.1,29 25.3,29C27.6,29 29.1,26.1 29.1,22.7C29.1,20.1 27.3,18.2 24.2,18.2C20.6,18.2 18.4,20.9 18.4,23.9C18.4,24.9 18.7,25.7 19.2,26.2C19.4,26.5 19.5,26.6 19.4,26.9C19.3,27.1 19.2,27.6 19.2,27.9C19.1,28.2 18.9,28.3 18.6,28.2C16.9,27.5 16.2,25.7 16.2,23.7C16.2,20.3 19,16.3 24.7,16.3C29.2,16.3 32.2,19.6 32.2,23.1C32.2,27.8 29.6,31.2 25.8,31.2C24.5,31.2 23.3,30.5 22.9,29.7C22.9,29.7 22.2,32.4 22.1,33C21.8,33.9 21.4,34.8 20.9,35.5C22,35.8 23.1,36 24.3,36C30.9,36 36.2,30.7 36.2,24.1C35.9,17.4 30.6,12.1 24,12.1Z" style="fill:white;fill-rule:nonzero;"/>
    </g>
</svg>
