<?xml version="1.0" encoding="UTF-8" standalone="no"?>
<!DOCTYPE svg PUBLIC "-//W3C//DTD SVG 1.1//EN" "http://www.w3.org/Graphics/SVG/1.1/DTD/svg11.dtd">
<svg width="100%" height="100%" viewBox="0 0 100 100" version="1.1" xmlns="http://www.w3.org/2000/svg" xmlns:xlink="http://www.w3.org/1999/xlink" xml:space="preserve" style="fill-rule:evenodd;clip-rule:evenodd;stroke-linecap:round;stroke-linejoin:round;stroke-miterlimit:10;">
    <g transform="matrix(3.98226,0,0,3.98226,20.5695,19.7879)">
        <clipPath id="_clip1">
            <path d="M5.456,1.695C5.54,0.755 6.378,0 7.39,0C8.402,0 9.24,0.755 9.325,1.695C9.953,0.984 11.079,0.86 11.898,1.449C12.717,2.037 12.946,3.136 12.456,3.946C13.386,3.735 14.371,4.29 14.684,5.242C14.996,6.195 14.529,7.216 13.652,7.587C14.529,7.957 14.996,8.979 14.684,9.931C14.371,10.883 13.386,11.438 12.456,11.228C12.946,12.038 12.717,13.136 11.898,13.724C11.079,14.313 9.953,14.189 9.325,13.478C9.24,14.418 8.402,15.173 7.39,15.173C6.378,15.173 5.54,14.418 5.456,13.478C4.828,14.189 3.702,14.313 2.883,13.724C2.064,13.136 1.835,12.038 2.325,11.228C1.395,11.438 0.41,10.883 0.097,9.931C-0.215,8.979 0.252,7.957 1.129,7.587C0.252,7.216 -0.215,6.195 0.097,5.242C0.41,4.29 1.395,3.735 2.325,3.946C1.835,3.136 2.064,2.037 2.883,1.449C3.702,0.86 4.828,0.984 5.456,1.695Z"/>
        </clipPath>
        <g clip-path="url(#_clip1)">
            <rect x="-5" y="-5" width="24.781" height="25.173" style="fill:rgb(236,95,186);fill-rule:nonzero;"/>
        </g>
    </g>
    <g transform="matrix(3.98226,0,0,3.98226,20.5695,19.7879)">
        <path d="M4.953,7.41L6.34,9.218L8.333,7.246L9.906,5.69" style="fill:none;stroke:white;stroke-width:1px;"/>
    </g>
</svg>
