<?xml version="1.0" encoding="UTF-8" standalone="no"?>
<!DOCTYPE svg PUBLIC "-//W3C//DTD SVG 1.1//EN" "http://www.w3.org/Graphics/SVG/1.1/DTD/svg11.dtd">
<svg width="100%" height="100%" viewBox="0 0 75 75" version="1.1" xmlns="http://www.w3.org/2000/svg" xmlns:xlink="http://www.w3.org/1999/xlink" xml:space="preserve" xmlns:serif="http://www.serif.com/" style="fill-rule:evenodd;clip-rule:evenodd;stroke-linejoin:round;stroke-miterlimit:1.41421;">
    <path d="M37.271,2.487C56.595,2.487 72.284,18.176 72.284,37.5C72.284,56.824 56.595,72.513 37.271,72.513C17.946,72.513 2.257,56.824 2.257,37.5C2.257,18.176 17.946,2.487 37.271,2.487ZM56.987,27.608C56.513,25.846 55.124,24.457 53.362,23.983C50.144,23.102 37.27,23.102 37.27,23.102C37.27,23.102 24.397,23.102 21.179,23.949C19.451,24.423 18.028,25.846 17.554,27.608C16.707,30.826 16.707,37.5 16.707,37.5C16.707,37.5 16.707,44.208 17.554,47.392C18.028,49.154 19.417,50.543 21.179,51.017C24.431,51.898 37.27,51.898 37.27,51.898C37.27,51.898 50.144,51.898 53.362,51.051C55.124,50.577 56.513,49.188 56.987,47.426C57.834,44.208 57.834,37.534 57.834,37.534C57.834,37.534 57.868,30.826 56.987,27.608ZM33.171,43.666L43.877,37.5L33.171,31.334L33.171,43.666Z" style="fill:rgb(168,169,176);"/>
</svg>
