<?xml version="1.0" encoding="UTF-8" standalone="no"?>
<!DOCTYPE svg PUBLIC "-//W3C//DTD SVG 1.1//EN" "http://www.w3.org/Graphics/SVG/1.1/DTD/svg11.dtd">
<svg width="100%" height="100%" viewBox="0 0 75 75" version="1.1" xmlns="http://www.w3.org/2000/svg" xmlns:xlink="http://www.w3.org/1999/xlink" xml:space="preserve" xmlns:serif="http://www.serif.com/" style="fill-rule:evenodd;clip-rule:evenodd;stroke-linejoin:round;stroke-miterlimit:1.41421;">
    <path d="M60,11C74.384,23.545 75.877,45.407 63.332,59.791C50.787,74.175 28.925,75.668 14.541,63.123C0.157,50.579 -1.336,28.716 11.209,14.332C23.754,-0.052 45.616,-1.545 60,11ZM36.166,17.145C30.757,17.145 30.079,17.168 27.954,17.265C25.835,17.362 24.386,17.698 23.121,18.191C21.81,18.7 20.7,19.381 19.593,20.488C18.485,21.595 17.804,22.706 17.295,24.016C16.803,25.282 16.466,26.73 16.37,28.85C16.273,30.974 16.25,31.653 16.25,37.062C16.25,42.47 16.272,43.148 16.37,45.273C16.466,47.392 16.803,48.841 17.296,50.107C17.804,51.416 18.485,52.528 19.593,53.635C20.7,54.742 21.81,55.423 23.12,55.932C24.387,56.425 25.835,56.762 27.955,56.858C30.079,56.956 30.757,56.978 36.166,56.978C41.574,56.978 42.253,56.955 44.378,56.858C46.497,56.761 47.945,56.425 49.211,55.932C50.521,55.423 51.632,54.742 52.739,53.635C53.846,52.528 54.527,51.417 55.037,50.108C55.529,48.841 55.865,47.393 55.962,45.273C56.059,43.149 56.082,42.471 56.082,37.061C56.082,31.654 56.06,30.975 55.963,28.851C55.865,26.73 55.53,25.283 55.037,24.016C54.528,22.707 53.847,21.596 52.739,20.489C51.633,19.381 50.522,18.7 49.212,18.191C47.945,17.7 46.498,17.362 44.378,17.265C42.254,17.168 41.575,17.146 36.166,17.146L36.166,17.145ZM36.166,20.734C41.484,20.734 42.114,20.753 44.214,20.849C46.155,20.938 47.209,21.262 47.911,21.536C48.841,21.896 49.504,22.328 50.201,23.025C50.899,23.721 51.331,24.385 51.692,25.315C51.964,26.017 52.289,27.071 52.377,29.013C52.473,31.113 52.494,31.743 52.494,37.06C52.494,42.378 52.473,43.009 52.377,45.108C52.289,47.05 51.964,48.105 51.692,48.806C51.331,49.736 50.898,50.4 50.202,51.097C49.505,51.793 48.841,52.224 47.912,52.586C47.21,52.859 46.155,53.183 44.214,53.271C42.113,53.367 41.483,53.387 36.165,53.387C30.847,53.387 30.217,53.368 28.118,53.271C26.175,53.183 25.121,52.858 24.419,52.585C23.49,52.225 22.826,51.793 22.13,51.096C21.432,50.4 21,49.736 20.64,48.806C20.367,48.104 20.042,47.05 19.954,45.108C19.858,43.008 19.838,42.378 19.838,37.06C19.838,31.742 19.857,31.112 19.954,29.012C20.042,27.07 20.367,26.015 20.64,25.313C21,24.384 21.432,23.72 22.13,23.023C22.826,22.327 23.49,21.895 24.419,21.534C25.121,21.261 26.176,20.937 28.118,20.847C30.218,20.752 30.847,20.732 36.165,20.732L36.166,20.734ZM36.166,26.834C30.518,26.834 25.939,31.413 25.939,37.061C25.939,42.71 30.518,47.289 36.166,47.289C41.814,47.289 46.393,42.71 46.393,37.062C46.393,31.413 41.814,26.834 36.166,26.834ZM36.166,43.699C32.499,43.699 29.527,40.728 29.527,37.061C29.527,33.395 32.499,30.422 36.166,30.422C39.832,30.422 42.805,33.395 42.805,37.061C42.805,40.728 39.832,43.7 36.166,43.7L36.166,43.699ZM49.187,26.43C49.187,27.749 48.117,28.82 46.797,28.82C45.478,28.82 44.407,27.749 44.407,26.43C44.407,25.11 45.478,24.04 46.797,24.04C48.117,24.04 49.187,25.11 49.187,26.43Z" style="fill:rgb(168,169,176);"/>
</svg>
