<?xml version="1.0" encoding="UTF-8" standalone="no"?>
<!DOCTYPE svg PUBLIC "-//W3C//DTD SVG 1.1//EN" "http://www.w3.org/Graphics/SVG/1.1/DTD/svg11.dtd">
<svg width="100%" height="100%" viewBox="0 0 75 75" version="1.1" xmlns="http://www.w3.org/2000/svg" xmlns:xlink="http://www.w3.org/1999/xlink" xml:space="preserve" xmlns:serif="http://www.serif.com/" style="fill-rule:evenodd;clip-rule:evenodd;stroke-linejoin:round;stroke-miterlimit:1.41421;">
    <path d="M60,11C74.384,23.545 75.877,45.407 63.332,59.791C50.787,74.175 28.925,75.668 14.541,63.123C0.157,50.579 -1.336,28.716 11.209,14.332C23.754,-0.052 45.616,-1.545 60,11ZM58.185,24.699C56.752,25.313 55.113,25.927 53.27,25.927C55.113,24.903 56.342,23.265 56.956,21.217C55.318,22.241 53.475,22.855 51.632,23.265C49.993,21.627 47.945,20.603 45.488,20.603C40.777,20.603 37.09,24.289 37.09,29C37.09,29.614 37.09,30.228 37.296,30.843C30.332,30.433 23.983,27.157 19.886,22.037C19.067,23.265 18.658,24.7 18.658,26.337C18.658,29.205 20.091,31.868 22.344,33.302C20.91,33.302 19.682,32.892 18.453,32.278L18.453,32.482C18.453,36.578 21.321,40.06 25.212,40.675C24.598,40.879 23.778,40.879 22.959,40.879C22.344,40.879 21.935,40.879 21.32,40.675C22.344,43.952 25.621,46.41 29.307,46.615C26.44,49.277 22.959,50.711 18.863,50.711C18.248,50.711 17.429,50.711 16.814,50.505C20.5,52.963 25.007,54.397 29.718,54.397C45.283,54.397 53.68,41.494 53.68,30.434L53.68,29.41C55.523,27.976 56.957,26.543 58.186,24.7L58.185,24.699Z" style="fill:rgb(168,169,176);"/>
</svg>
