<?xml version="1.0" encoding="UTF-8" standalone="no"?>
<!DOCTYPE svg PUBLIC "-//W3C//DTD SVG 1.1//EN" "http://www.w3.org/Graphics/SVG/1.1/DTD/svg11.dtd">
<svg width="100%" height="100%" viewBox="0 0 100 100" version="1.1" xmlns="http://www.w3.org/2000/svg" xmlns:xlink="http://www.w3.org/1999/xlink" xml:space="preserve" style="fill-rule:evenodd;clip-rule:evenodd;stroke-linecap:round;stroke-linejoin:round;stroke-miterlimit:10;">
    <g transform="matrix(4.38095,0,0,4.38095,-42,-42)">
        <path d="M21.071,10L21.142,10.001L21.213,10.002L21.284,10.004L21.354,10.006L21.425,10.008L21.495,10.011L21.566,10.014L21.636,10.018L21.706,10.022L21.776,10.027L21.846,10.032L21.916,10.038L21.985,10.044L22.055,10.05L22.124,10.057L22.193,10.064L22.262,10.072L22.331,10.08L22.4,10.088L22.469,10.097L22.538,10.107L22.606,10.116L22.675,10.127L22.743,10.137L22.811,10.148L22.879,10.16L22.947,10.172L23.014,10.184L23.082,10.197L23.149,10.21L23.216,10.223L23.283,10.237L23.35,10.252L23.417,10.267L23.484,10.282L23.55,10.297L23.617,10.313L23.683,10.33L23.749,10.346L23.815,10.363L23.88,10.381L23.946,10.399L24.011,10.417L24.076,10.436L24.141,10.455L24.206,10.475L24.271,10.495L24.335,10.515L24.4,10.536L24.464,10.557L24.528,10.578L24.592,10.6L24.655,10.622L24.719,10.645L24.782,10.668L24.845,10.691L24.908,10.715L24.971,10.739L25.034,10.763L25.096,10.788L25.158,10.813L25.22,10.839L25.282,10.865L25.343,10.891L25.405,10.918L25.466,10.945L25.527,10.972L25.588,11L25.649,11.028L25.709,11.056L25.769,11.085L25.829,11.114L25.889,11.144L25.949,11.173L26.008,11.204L26.067,11.234L26.126,11.265L26.185,11.296L26.244,11.328L26.302,11.36L26.36,11.392L26.418,11.425L26.476,11.458L26.533,11.491L26.59,11.525L26.647,11.559L26.704,11.593L26.761,11.627L26.817,11.662L26.873,11.698L26.929,11.733L26.985,11.769L27.04,11.805L27.096,11.842L27.151,11.879L27.205,11.916L27.26,11.954L27.314,11.992L27.368,12.03L27.422,12.068L27.475,12.107L27.529,12.146L27.582,12.186L27.635,12.225L27.687,12.265L27.739,12.306L27.792,12.346L27.843,12.387L27.895,12.429L27.946,12.47L27.997,12.512L28.048,12.554L28.099,12.597L28.149,12.639L28.199,12.683L28.249,12.726L28.298,12.77L28.347,12.813L28.396,12.858L28.445,12.902L28.493,12.947L28.542,12.992L28.589,13.037L28.637,13.083L28.684,13.129L28.731,13.175L28.778,13.222L28.825,13.269L28.871,13.316L28.917,13.363L28.963,13.411L29.008,13.458L29.053,13.507L29.098,13.555L29.142,13.604L29.187,13.653L29.23,13.702L29.274,13.751L29.317,13.801L29.361,13.851L29.403,13.901L29.446,13.952L29.488,14.003L29.53,14.054L29.571,14.105L29.613,14.157L29.654,14.208L29.694,14.261L29.735,14.313L29.775,14.365L29.814,14.418L29.854,14.471L29.893,14.525L29.932,14.578L29.97,14.632L30.008,14.686L30.046,14.74L30.084,14.795L30.121,14.849L30.158,14.904L30.195,14.96L30.231,15.015L30.267,15.071L30.302,15.127L30.338,15.183L30.373,15.239L30.407,15.296L30.441,15.353L30.475,15.41L30.509,15.467L30.542,15.524L30.575,15.582L30.608,15.64L30.64,15.698L30.672,15.756L30.704,15.815L30.735,15.874L30.766,15.933L30.796,15.992L30.827,16.051L30.856,16.111L30.886,16.171L30.915,16.231L30.944,16.291L30.972,16.351L31,16.412L31.028,16.473L31.055,16.534L31.082,16.595L31.109,16.657L31.135,16.718L31.161,16.78L31.187,16.842L31.212,16.904L31.237,16.966L31.261,17.029L31.285,17.092L31.309,17.155L31.332,17.218L31.355,17.281L31.378,17.345L31.4,17.408L31.422,17.472L31.443,17.536L31.464,17.6L31.485,17.665L31.505,17.729L31.525,17.794L31.545,17.859L31.564,17.924L31.583,17.989L31.601,18.054L31.619,18.12L31.637,18.185L31.654,18.251L31.67,18.317L31.687,18.383L31.703,18.45L31.718,18.516L31.733,18.583L31.748,18.65L31.763,18.717L31.777,18.784L31.79,18.851L31.803,18.918L31.816,18.986L31.828,19.053L31.84,19.121L31.852,19.189L31.863,19.257L31.873,19.325L31.884,19.394L31.893,19.462L31.903,19.531L31.912,19.6L31.92,19.669L31.928,19.738L31.936,19.807L31.943,19.876L31.95,19.945L31.956,20.015L31.962,20.084L31.968,20.154L31.973,20.224L31.978,20.294L31.982,20.364L31.986,20.434L31.989,20.505L31.992,20.575L31.994,20.646L31.996,20.716L31.998,20.787L31.999,20.858L32,20.929L32,21L32,21.071L31.999,21.142L31.998,21.213L31.996,21.284L31.994,21.354L31.992,21.425L31.989,21.495L31.986,21.566L31.982,21.636L31.978,21.706L31.973,21.776L31.968,21.846L31.962,21.916L31.956,21.985L31.95,22.055L31.943,22.124L31.936,22.193L31.928,22.262L31.92,22.331L31.912,22.4L31.903,22.469L31.893,22.538L31.884,22.606L31.873,22.675L31.863,22.743L31.852,22.811L31.84,22.879L31.828,22.947L31.816,23.014L31.803,23.082L31.79,23.149L31.777,23.216L31.763,23.283L31.748,23.35L31.733,23.417L31.718,23.484L31.703,23.55L31.687,23.617L31.67,23.683L31.654,23.749L31.637,23.815L31.619,23.88L31.601,23.946L31.583,24.011L31.564,24.076L31.545,24.141L31.525,24.206L31.505,24.271L31.485,24.335L31.464,24.4L31.443,24.464L31.422,24.528L31.4,24.592L31.378,24.655L31.355,24.719L31.332,24.782L31.309,24.845L31.285,24.908L31.261,24.971L31.237,25.034L31.212,25.096L31.187,25.158L31.161,25.22L31.135,25.282L31.109,25.343L31.082,25.405L31.055,25.466L31.028,25.527L31,25.588L30.972,25.649L30.944,25.709L30.915,25.769L30.886,25.829L30.856,25.889L30.827,25.949L30.796,26.008L30.766,26.067L30.735,26.126L30.704,26.185L30.672,26.244L30.64,26.302L30.608,26.36L30.575,26.418L30.542,26.476L30.509,26.533L30.475,26.59L30.441,26.647L30.407,26.704L30.373,26.761L30.338,26.817L30.302,26.873L30.267,26.929L30.231,26.985L30.195,27.04L30.158,27.096L30.121,27.151L30.084,27.205L30.046,27.26L30.008,27.314L29.97,27.368L29.932,27.422L29.893,27.475L29.854,27.529L29.814,27.582L29.775,27.635L29.735,27.687L29.694,27.739L29.654,27.792L29.613,27.843L29.571,27.895L29.53,27.946L29.488,27.997L29.446,28.048L29.403,28.099L29.361,28.149L29.317,28.199L29.274,28.249L29.23,28.298L29.187,28.347L29.142,28.396L29.098,28.445L29.053,28.493L29.008,28.542L28.963,28.589L28.917,28.637L28.871,28.684L28.825,28.731L28.778,28.778L28.731,28.825L28.684,28.871L28.637,28.917L28.589,28.963L28.542,29.008L28.493,29.053L28.445,29.098L28.396,29.142L28.347,29.187L28.298,29.23L28.249,29.274L28.199,29.317L28.149,29.361L28.099,29.403L28.048,29.446L27.997,29.488L27.946,29.53L27.895,29.571L27.843,29.613L27.792,29.654L27.739,29.694L27.687,29.735L27.635,29.775L27.582,29.814L27.529,29.854L27.475,29.893L27.422,29.932L27.368,29.97L27.314,30.008L27.26,30.046L27.205,30.084L27.151,30.121L27.096,30.158L27.04,30.195L26.985,30.231L26.929,30.267L26.873,30.302L26.817,30.338L26.761,30.373L26.704,30.407L26.647,30.441L26.59,30.475L26.533,30.509L26.476,30.542L26.418,30.575L26.36,30.608L26.302,30.64L26.244,30.672L26.185,30.704L26.126,30.735L26.067,30.766L26.008,30.796L25.949,30.827L25.889,30.856L25.829,30.886L25.769,30.915L25.709,30.944L25.649,30.972L25.588,31L25.527,31.028L25.466,31.055L25.405,31.082L25.343,31.109L25.282,31.135L25.22,31.161L25.158,31.187L25.096,31.212L25.034,31.237L24.971,31.261L24.908,31.285L24.845,31.309L24.782,31.332L24.719,31.355L24.655,31.378L24.592,31.4L24.528,31.422L24.464,31.443L24.4,31.464L24.335,31.485L24.271,31.505L24.206,31.525L24.141,31.545L24.076,31.564L24.011,31.583L23.946,31.601L23.88,31.619L23.815,31.637L23.749,31.654L23.683,31.67L23.617,31.687L23.55,31.703L23.484,31.718L23.417,31.733L23.35,31.748L23.283,31.763L23.216,31.777L23.149,31.79L23.082,31.803L23.014,31.816L22.947,31.828L22.879,31.84L22.811,31.852L22.743,31.863L22.675,31.873L22.606,31.884L22.538,31.893L22.469,31.903L22.4,31.912L22.331,31.92L22.262,31.928L22.193,31.936L22.124,31.943L22.055,31.95L21.985,31.956L21.916,31.962L21.846,31.968L21.776,31.973L21.706,31.978L21.636,31.982L21.566,31.986L21.495,31.989L21.425,31.992L21.354,31.994L21.284,31.996L21.213,31.998L21.142,31.999L21.071,32L21,32L20.929,32L20.858,31.999L20.787,31.998L20.716,31.996L20.646,31.994L20.575,31.992L20.505,31.989L20.434,31.986L20.364,31.982L20.294,31.978L20.224,31.973L20.154,31.968L20.084,31.962L20.015,31.956L19.945,31.95L19.876,31.943L19.807,31.936L19.738,31.928L19.669,31.92L19.6,31.912L19.531,31.903L19.462,31.893L19.394,31.884L19.325,31.873L19.257,31.863L19.189,31.852L19.121,31.84L19.053,31.828L18.986,31.816L18.918,31.803L18.851,31.79L18.784,31.777L18.717,31.763L18.65,31.748L18.583,31.733L18.516,31.718L18.45,31.703L18.383,31.687L18.317,31.67L18.251,31.654L18.185,31.637L18.12,31.619L18.054,31.601L17.989,31.583L17.924,31.564L17.859,31.545L17.794,31.525L17.729,31.505L17.665,31.485L17.6,31.464L17.536,31.443L17.472,31.422L17.408,31.4L17.345,31.378L17.281,31.355L17.218,31.332L17.155,31.309L17.092,31.285L17.029,31.261L16.966,31.237L16.904,31.212L16.842,31.187L16.78,31.161L16.718,31.135L16.657,31.109L16.595,31.082L16.534,31.055L16.473,31.028L16.412,31L16.351,30.972L16.291,30.944L16.231,30.915L16.171,30.886L16.111,30.856L16.051,30.827L15.992,30.796L15.933,30.766L15.874,30.735L15.815,30.704L15.756,30.672L15.698,30.64L15.64,30.608L15.582,30.575L15.524,30.542L15.467,30.509L15.41,30.475L15.353,30.441L15.296,30.407L15.239,30.373L15.183,30.338L15.127,30.302L15.071,30.267L15.015,30.231L14.96,30.195L14.904,30.158L14.849,30.121L14.795,30.084L14.74,30.046L14.686,30.008L14.632,29.97L14.578,29.932L14.525,29.893L14.471,29.854L14.418,29.814L14.365,29.775L14.313,29.735L14.261,29.694L14.208,29.654L14.157,29.613L14.105,29.571L14.054,29.53L14.003,29.488L13.952,29.446L13.901,29.403L13.851,29.361L13.801,29.317L13.751,29.274L13.702,29.23L13.653,29.187L13.604,29.142L13.555,29.098L13.507,29.053L13.458,29.008L13.411,28.963L13.363,28.917L13.316,28.871L13.269,28.825L13.222,28.778L13.175,28.731L13.129,28.684L13.083,28.637L13.037,28.589L12.992,28.542L12.947,28.493L12.902,28.445L12.858,28.396L12.813,28.347L12.77,28.298L12.726,28.249L12.683,28.199L12.639,28.149L12.597,28.099L12.554,28.048L12.512,27.997L12.47,27.946L12.429,27.895L12.387,27.843L12.346,27.792L12.306,27.739L12.265,27.687L12.225,27.635L12.186,27.582L12.146,27.529L12.107,27.475L12.068,27.422L12.03,27.368L11.992,27.314L11.954,27.26L11.916,27.205L11.879,27.151L11.842,27.096L11.805,27.04L11.769,26.985L11.733,26.929L11.698,26.873L11.662,26.817L11.627,26.761L11.593,26.704L11.559,26.647L11.525,26.59L11.491,26.533L11.458,26.476L11.425,26.418L11.392,26.36L11.36,26.302L11.328,26.244L11.296,26.185L11.265,26.126L11.234,26.067L11.204,26.008L11.173,25.949L11.144,25.889L11.114,25.829L11.085,25.769L11.056,25.709L11.028,25.649L11,25.588L10.972,25.527L10.945,25.466L10.918,25.405L10.891,25.343L10.865,25.282L10.839,25.22L10.813,25.158L10.788,25.096L10.763,25.034L10.739,24.971L10.715,24.908L10.691,24.845L10.668,24.782L10.645,24.719L10.622,24.655L10.6,24.592L10.578,24.528L10.557,24.464L10.536,24.4L10.515,24.335L10.495,24.271L10.475,24.206L10.455,24.141L10.436,24.076L10.417,24.011L10.399,23.946L10.381,23.88L10.363,23.815L10.346,23.749L10.33,23.683L10.313,23.617L10.297,23.55L10.282,23.484L10.267,23.417L10.252,23.35L10.237,23.283L10.223,23.216L10.21,23.149L10.197,23.082L10.184,23.014L10.172,22.947L10.16,22.879L10.148,22.811L10.137,22.743L10.127,22.675L10.116,22.606L10.107,22.538L10.097,22.469L10.088,22.4L10.08,22.331L10.072,22.262L10.064,22.193L10.057,22.124L10.05,22.055L10.044,21.985L10.038,21.916L10.032,21.846L10.027,21.776L10.022,21.706L10.018,21.636L10.014,21.566L10.011,21.495L10.008,21.425L10.006,21.354L10.004,21.284L10.002,21.213L10.001,21.142L10,21.071L10,21L10,20.929L10.001,20.858L10.002,20.787L10.004,20.716L10.006,20.646L10.008,20.575L10.011,20.505L10.014,20.434L10.018,20.364L10.022,20.294L10.027,20.224L10.032,20.154L10.038,20.084L10.044,20.015L10.05,19.945L10.057,19.876L10.064,19.807L10.072,19.738L10.08,19.669L10.088,19.6L10.097,19.531L10.107,19.462L10.116,19.394L10.127,19.325L10.137,19.257L10.148,19.189L10.16,19.121L10.172,19.053L10.184,18.986L10.197,18.918L10.21,18.851L10.223,18.784L10.237,18.717L10.252,18.65L10.267,18.583L10.282,18.516L10.297,18.45L10.313,18.383L10.33,18.317L10.346,18.251L10.363,18.185L10.381,18.12L10.399,18.054L10.417,17.989L10.436,17.924L10.455,17.859L10.475,17.794L10.495,17.729L10.515,17.665L10.536,17.6L10.557,17.536L10.578,17.472L10.6,17.408L10.622,17.345L10.645,17.281L10.668,17.218L10.691,17.155L10.715,17.092L10.739,17.029L10.763,16.966L10.788,16.904L10.813,16.842L10.839,16.78L10.865,16.718L10.891,16.657L10.918,16.595L10.945,16.534L10.972,16.473L11,16.412L11.028,16.351L11.056,16.291L11.085,16.231L11.114,16.171L11.144,16.111L11.173,16.051L11.204,15.992L11.234,15.933L11.265,15.874L11.296,15.815L11.328,15.756L11.36,15.698L11.392,15.64L11.425,15.582L11.458,15.524L11.491,15.467L11.525,15.41L11.559,15.353L11.593,15.296L11.627,15.239L11.662,15.183L11.698,15.127L11.733,15.071L11.769,15.015L11.805,14.96L11.842,14.904L11.879,14.849L11.916,14.795L11.954,14.74L11.992,14.686L12.03,14.632L12.068,14.578L12.107,14.525L12.146,14.471L12.186,14.418L12.225,14.365L12.265,14.313L12.306,14.261L12.346,14.208L12.387,14.157L12.429,14.105L12.47,14.054L12.512,14.003L12.554,13.952L12.597,13.901L12.639,13.851L12.683,13.801L12.726,13.751L12.77,13.702L12.813,13.653L12.858,13.604L12.902,13.555L12.947,13.507L12.992,13.458L13.037,13.411L13.083,13.363L13.129,13.316L13.175,13.269L13.222,13.222L13.269,13.175L13.316,13.129L13.363,13.083L13.411,13.037L13.458,12.992L13.507,12.947L13.555,12.902L13.604,12.858L13.653,12.813L13.702,12.77L13.751,12.726L13.801,12.683L13.851,12.639L13.901,12.597L13.952,12.554L14.003,12.512L14.054,12.47L14.105,12.429L14.157,12.387L14.208,12.346L14.261,12.306L14.313,12.265L14.365,12.225L14.418,12.186L14.471,12.146L14.525,12.107L14.578,12.068L14.632,12.03L14.686,11.992L14.74,11.954L14.795,11.916L14.849,11.879L14.904,11.842L14.96,11.805L15.015,11.769L15.071,11.733L15.127,11.698L15.183,11.662L15.239,11.627L15.296,11.593L15.353,11.559L15.41,11.525L15.467,11.491L15.524,11.458L15.582,11.425L15.64,11.392L15.698,11.36L15.756,11.328L15.815,11.296L15.874,11.265L15.933,11.234L15.992,11.204L16.051,11.173L16.111,11.144L16.171,11.114L16.231,11.085L16.291,11.056L16.351,11.028L16.412,11L16.473,10.972L16.534,10.945L16.595,10.918L16.657,10.891L16.718,10.865L16.78,10.839L16.842,10.813L16.904,10.788L16.966,10.763L17.029,10.739L17.092,10.715L17.155,10.691L17.218,10.668L17.281,10.645L17.345,10.622L17.408,10.6L17.472,10.578L17.536,10.557L17.6,10.536L17.665,10.515L17.729,10.495L17.794,10.475L17.859,10.455L17.924,10.436L17.989,10.417L18.054,10.399L18.12,10.381L18.185,10.363L18.251,10.346L18.317,10.33L18.383,10.313L18.45,10.297L18.516,10.282L18.583,10.267L18.65,10.252L18.717,10.237L18.784,10.223L18.851,10.21L18.918,10.197L18.986,10.184L19.053,10.172L19.121,10.16L19.189,10.148L19.257,10.137L19.325,10.127L19.394,10.116L19.462,10.107L19.531,10.097L19.6,10.088L19.669,10.08L19.738,10.072L19.807,10.064L19.876,10.057L19.945,10.05L20.015,10.044L20.084,10.038L20.154,10.032L20.224,10.027L20.294,10.022L20.364,10.018L20.434,10.014L20.505,10.011L20.575,10.008L20.646,10.006L20.716,10.004L20.787,10.002L20.858,10.001L20.929,10L21,10L21.071,10ZM20.935,11L20.871,11.001L20.806,11.002L20.742,11.003L20.677,11.005L20.613,11.007L20.549,11.01L20.485,11.013L20.421,11.016L20.357,11.02L20.294,11.025L20.23,11.029L20.167,11.034L20.103,11.04L20.04,11.045L19.977,11.052L19.914,11.058L19.851,11.065L19.788,11.073L19.726,11.08L19.663,11.089L19.601,11.097L19.539,11.106L19.476,11.115L19.414,11.125L19.353,11.135L19.291,11.145L19.229,11.156L19.168,11.167L19.106,11.179L19.045,11.191L18.984,11.203L18.923,11.216L18.862,11.229L18.802,11.242L18.741,11.256L18.681,11.27L18.621,11.285L18.56,11.3L18.5,11.315L18.441,11.33L18.381,11.346L18.321,11.363L18.262,11.379L18.203,11.396L18.144,11.414L18.085,11.431L18.026,11.45L17.968,11.468L17.909,11.487L17.851,11.506L17.793,11.525L17.735,11.545L17.677,11.565L17.619,11.586L17.562,11.607L17.504,11.628L17.447,11.649L17.39,11.671L17.333,11.693L17.277,11.716L17.22,11.739L17.164,11.762L17.108,11.786L17.052,11.81L16.996,11.834L16.94,11.858L16.885,11.883L16.83,11.908L16.774,11.934L16.72,11.96L16.665,11.986L16.61,12.012L16.556,12.039L16.502,12.066L16.448,12.094L16.394,12.121L16.34,12.15L16.287,12.178L16.234,12.207L16.181,12.236L16.128,12.265L16.075,12.295L16.023,12.325L15.971,12.355L15.918,12.385L15.867,12.416L15.815,12.447L15.764,12.479L15.712,12.511L15.661,12.543L15.61,12.575L15.56,12.608L15.509,12.641L15.459,12.674L15.409,12.708L15.359,12.741L15.31,12.776L15.261,12.81L15.211,12.845L15.163,12.88L15.114,12.915L15.065,12.951L15.017,12.986L14.969,13.023L14.921,13.059L14.874,13.096L14.826,13.133L14.779,13.17L14.732,13.207L14.686,13.245L14.639,13.283L14.593,13.322L14.547,13.36L14.501,13.399L14.456,13.438L14.411,13.478L14.366,13.518L14.321,13.557L14.276,13.598L14.232,13.638L14.188,13.679L14.144,13.72L14.101,13.761L14.057,13.803L14.014,13.845L13.971,13.887L13.929,13.929L13.887,13.971L13.845,14.014L13.803,14.057L13.761,14.101L13.72,14.144L13.679,14.188L13.638,14.232L13.598,14.276L13.557,14.321L13.518,14.366L13.478,14.411L13.438,14.456L13.399,14.501L13.36,14.547L13.322,14.593L13.283,14.639L13.245,14.686L13.207,14.732L13.17,14.779L13.133,14.826L13.096,14.874L13.059,14.921L13.023,14.969L12.986,15.017L12.951,15.065L12.915,15.114L12.88,15.163L12.845,15.211L12.81,15.261L12.776,15.31L12.741,15.359L12.708,15.409L12.674,15.459L12.641,15.509L12.608,15.56L12.575,15.61L12.543,15.661L12.511,15.712L12.479,15.764L12.447,15.815L12.416,15.867L12.385,15.918L12.355,15.971L12.325,16.023L12.295,16.075L12.265,16.128L12.236,16.181L12.207,16.234L12.178,16.287L12.15,16.34L12.121,16.394L12.094,16.448L12.066,16.502L12.039,16.556L12.012,16.61L11.986,16.665L11.96,16.72L11.934,16.774L11.908,16.83L11.883,16.885L11.858,16.94L11.834,16.996L11.81,17.052L11.786,17.108L11.762,17.164L11.739,17.22L11.716,17.277L11.693,17.333L11.671,17.39L11.649,17.447L11.628,17.504L11.607,17.562L11.586,17.619L11.565,17.677L11.545,17.735L11.525,17.793L11.506,17.851L11.487,17.909L11.468,17.968L11.45,18.026L11.431,18.085L11.414,18.144L11.396,18.203L11.379,18.262L11.363,18.321L11.346,18.381L11.33,18.441L11.315,18.5L11.3,18.56L11.285,18.621L11.27,18.681L11.256,18.741L11.242,18.802L11.229,18.862L11.216,18.923L11.203,18.984L11.191,19.045L11.179,19.106L11.167,19.168L11.156,19.229L11.145,19.291L11.135,19.353L11.125,19.414L11.115,19.476L11.106,19.539L11.097,19.601L11.089,19.663L11.08,19.726L11.073,19.788L11.065,19.851L11.058,19.914L11.052,19.977L11.045,20.04L11.04,20.103L11.034,20.167L11.029,20.23L11.025,20.294L11.02,20.357L11.016,20.421L11.013,20.485L11.01,20.549L11.007,20.613L11.005,20.677L11.003,20.742L11.002,20.806L11.001,20.871L11,20.935L11,21L11,21.065L11.001,21.129L11.002,21.194L11.003,21.258L11.005,21.323L11.007,21.387L11.01,21.451L11.013,21.515L11.016,21.579L11.02,21.643L11.025,21.706L11.029,21.77L11.034,21.833L11.04,21.897L11.045,21.96L11.052,22.023L11.058,22.086L11.065,22.149L11.073,22.212L11.08,22.274L11.089,22.337L11.097,22.399L11.106,22.461L11.115,22.524L11.125,22.586L11.135,22.647L11.145,22.709L11.156,22.771L11.167,22.832L11.179,22.894L11.191,22.955L11.203,23.016L11.216,23.077L11.229,23.138L11.242,23.198L11.256,23.259L11.27,23.319L11.285,23.379L11.3,23.44L11.315,23.5L11.33,23.559L11.346,23.619L11.363,23.679L11.379,23.738L11.396,23.797L11.414,23.856L11.431,23.915L11.45,23.974L11.468,24.032L11.487,24.091L11.506,24.149L11.525,24.207L11.545,24.265L11.565,24.323L11.586,24.381L11.607,24.438L11.628,24.496L11.649,24.553L11.671,24.61L11.693,24.667L11.716,24.723L11.739,24.78L11.762,24.836L11.786,24.892L11.81,24.948L11.834,25.004L11.858,25.06L11.883,25.115L11.908,25.17L11.934,25.226L11.96,25.28L11.986,25.335L12.012,25.39L12.039,25.444L12.066,25.498L12.094,25.552L12.121,25.606L12.15,25.66L12.178,25.713L12.207,25.766L12.236,25.819L12.265,25.872L12.295,25.925L12.325,25.977L12.355,26.029L12.385,26.082L12.416,26.133L12.447,26.185L12.479,26.236L12.511,26.288L12.543,26.339L12.575,26.39L12.608,26.44L12.641,26.491L12.674,26.541L12.708,26.591L12.741,26.641L12.776,26.69L12.81,26.739L12.845,26.789L12.88,26.837L12.915,26.886L12.951,26.935L12.986,26.983L13.023,27.031L13.059,27.079L13.096,27.126L13.133,27.174L13.17,27.221L13.207,27.268L13.245,27.314L13.283,27.361L13.322,27.407L13.36,27.453L13.399,27.499L13.438,27.544L13.478,27.589L13.518,27.634L13.557,27.679L13.598,27.724L13.638,27.768L13.679,27.812L13.72,27.856L13.761,27.899L13.803,27.943L13.845,27.986L13.887,28.029L13.929,28.071L13.971,28.113L14.014,28.155L14.057,28.197L14.101,28.239L14.144,28.28L14.188,28.321L14.232,28.362L14.276,28.402L14.321,28.443L14.366,28.482L14.411,28.522L14.456,28.562L14.501,28.601L14.547,28.64L14.593,28.678L14.639,28.717L14.686,28.755L14.732,28.793L14.779,28.83L14.826,28.867L14.874,28.904L14.921,28.941L14.969,28.977L15.017,29.014L15.065,29.049L15.114,29.085L15.163,29.12L15.211,29.155L15.261,29.19L15.31,29.224L15.359,29.259L15.409,29.292L15.459,29.326L15.509,29.359L15.56,29.392L15.61,29.425L15.661,29.457L15.712,29.489L15.764,29.521L15.815,29.553L15.867,29.584L15.918,29.615L15.971,29.645L16.023,29.675L16.075,29.705L16.128,29.735L16.181,29.764L16.234,29.793L16.287,29.822L16.34,29.85L16.394,29.879L16.448,29.906L16.502,29.934L16.556,29.961L16.61,29.988L16.665,30.014L16.72,30.04L16.774,30.066L16.83,30.092L16.885,30.117L16.94,30.142L16.996,30.166L17.052,30.19L17.108,30.214L17.164,30.238L17.22,30.261L17.277,30.284L17.333,30.307L17.39,30.329L17.447,30.351L17.504,30.372L17.562,30.393L17.619,30.414L17.677,30.435L17.735,30.455L17.793,30.475L17.851,30.494L17.909,30.513L17.968,30.532L18.026,30.55L18.085,30.569L18.144,30.586L18.203,30.604L18.262,30.621L18.321,30.637L18.381,30.654L18.441,30.67L18.5,30.685L18.56,30.7L18.621,30.715L18.681,30.73L18.741,30.744L18.802,30.758L18.862,30.771L18.923,30.784L18.984,30.797L19.045,30.809L19.106,30.821L19.168,30.833L19.229,30.844L19.291,30.855L19.353,30.865L19.414,30.875L19.476,30.885L19.539,30.894L19.601,30.903L19.663,30.911L19.726,30.92L19.788,30.927L19.851,30.935L19.914,30.942L19.977,30.948L20.04,30.955L20.103,30.96L20.167,30.966L20.23,30.971L20.294,30.975L20.357,30.98L20.421,30.984L20.485,30.987L20.549,30.99L20.613,30.993L20.677,30.995L20.742,30.997L20.806,30.998L20.871,30.999L20.935,31L21,31L21.065,31L21.129,30.999L21.194,30.998L21.258,30.997L21.323,30.995L21.387,30.993L21.451,30.99L21.515,30.987L21.579,30.984L21.643,30.98L21.706,30.975L21.77,30.971L21.833,30.966L21.897,30.96L21.96,30.955L22.023,30.948L22.086,30.942L22.149,30.935L22.212,30.927L22.274,30.92L22.337,30.911L22.399,30.903L22.461,30.894L22.524,30.885L22.586,30.875L22.647,30.865L22.709,30.855L22.771,30.844L22.832,30.833L22.894,30.821L22.955,30.809L23.016,30.797L23.077,30.784L23.138,30.771L23.198,30.758L23.259,30.744L23.319,30.73L23.379,30.715L23.44,30.7L23.5,30.685L23.559,30.67L23.619,30.654L23.679,30.637L23.738,30.621L23.797,30.604L23.856,30.586L23.915,30.569L23.974,30.55L24.032,30.532L24.091,30.513L24.149,30.494L24.207,30.475L24.265,30.455L24.323,30.435L24.381,30.414L24.438,30.393L24.496,30.372L24.553,30.351L24.61,30.329L24.667,30.307L24.723,30.284L24.78,30.261L24.836,30.238L24.892,30.214L24.948,30.19L25.004,30.166L25.06,30.142L25.115,30.117L25.17,30.092L25.226,30.066L25.28,30.04L25.335,30.014L25.39,29.988L25.444,29.961L25.498,29.934L25.552,29.906L25.606,29.879L25.66,29.85L25.713,29.822L25.766,29.793L25.819,29.764L25.872,29.735L25.925,29.705L25.977,29.675L26.029,29.645L26.082,29.615L26.133,29.584L26.185,29.553L26.236,29.521L26.288,29.489L26.339,29.457L26.39,29.425L26.44,29.392L26.491,29.359L26.541,29.326L26.591,29.292L26.641,29.259L26.69,29.224L26.739,29.19L26.789,29.155L26.837,29.12L26.886,29.085L26.935,29.049L26.983,29.014L27.031,28.977L27.079,28.941L27.126,28.904L27.174,28.867L27.221,28.83L27.268,28.793L27.314,28.755L27.361,28.717L27.407,28.678L27.453,28.64L27.499,28.601L27.544,28.562L27.589,28.522L27.634,28.482L27.679,28.443L27.724,28.402L27.768,28.362L27.812,28.321L27.856,28.28L27.899,28.239L27.943,28.197L27.986,28.155L28.029,28.113L28.071,28.071L28.113,28.029L28.155,27.986L28.197,27.943L28.239,27.899L28.28,27.856L28.321,27.812L28.362,27.768L28.402,27.724L28.443,27.679L28.482,27.634L28.522,27.589L28.562,27.544L28.601,27.499L28.64,27.453L28.678,27.407L28.717,27.361L28.755,27.314L28.793,27.268L28.83,27.221L28.867,27.174L28.904,27.126L28.941,27.079L28.977,27.031L29.014,26.983L29.049,26.935L29.085,26.886L29.12,26.837L29.155,26.789L29.19,26.739L29.224,26.69L29.259,26.641L29.292,26.591L29.326,26.541L29.359,26.491L29.392,26.44L29.425,26.39L29.457,26.339L29.489,26.288L29.521,26.236L29.553,26.185L29.584,26.133L29.615,26.082L29.645,26.029L29.675,25.977L29.705,25.925L29.735,25.872L29.764,25.819L29.793,25.766L29.822,25.713L29.85,25.66L29.879,25.606L29.906,25.552L29.934,25.498L29.961,25.444L29.988,25.39L30.014,25.335L30.04,25.28L30.066,25.226L30.092,25.17L30.117,25.115L30.142,25.06L30.166,25.004L30.19,24.948L30.214,24.892L30.238,24.836L30.261,24.78L30.284,24.723L30.307,24.667L30.329,24.61L30.351,24.553L30.372,24.496L30.393,24.438L30.414,24.381L30.435,24.323L30.455,24.265L30.475,24.207L30.494,24.149L30.513,24.091L30.532,24.032L30.55,23.974L30.569,23.915L30.586,23.856L30.604,23.797L30.621,23.738L30.637,23.679L30.654,23.619L30.67,23.559L30.685,23.5L30.7,23.44L30.715,23.379L30.73,23.319L30.744,23.259L30.758,23.198L30.771,23.138L30.784,23.077L30.797,23.016L30.809,22.955L30.821,22.894L30.833,22.832L30.844,22.771L30.855,22.709L30.865,22.647L30.875,22.586L30.885,22.524L30.894,22.461L30.903,22.399L30.911,22.337L30.92,22.274L30.927,22.212L30.935,22.149L30.942,22.086L30.948,22.023L30.955,21.96L30.96,21.897L30.966,21.833L30.971,21.77L30.975,21.706L30.98,21.643L30.984,21.579L30.987,21.515L30.99,21.451L30.993,21.387L30.995,21.323L30.997,21.258L30.998,21.194L30.999,21.129L31,21.065L31,21L31,20.935L30.999,20.871L30.998,20.806L30.997,20.742L30.995,20.677L30.993,20.613L30.99,20.549L30.987,20.485L30.984,20.421L30.98,20.357L30.975,20.294L30.971,20.23L30.966,20.167L30.96,20.103L30.955,20.04L30.948,19.977L30.942,19.914L30.935,19.851L30.927,19.788L30.92,19.726L30.911,19.663L30.903,19.601L30.894,19.539L30.885,19.476L30.875,19.414L30.865,19.353L30.855,19.291L30.844,19.229L30.833,19.168L30.821,19.106L30.809,19.045L30.797,18.984L30.784,18.923L30.771,18.862L30.758,18.802L30.744,18.741L30.73,18.681L30.715,18.621L30.7,18.56L30.685,18.5L30.67,18.441L30.654,18.381L30.637,18.321L30.621,18.262L30.604,18.203L30.586,18.144L30.569,18.085L30.55,18.026L30.532,17.968L30.513,17.909L30.494,17.851L30.475,17.793L30.455,17.735L30.435,17.677L30.414,17.619L30.393,17.562L30.372,17.504L30.351,17.447L30.329,17.39L30.307,17.333L30.284,17.277L30.261,17.22L30.238,17.164L30.214,17.108L30.19,17.052L30.166,16.996L30.142,16.94L30.117,16.885L30.092,16.83L30.066,16.774L30.04,16.72L30.014,16.665L29.988,16.61L29.961,16.556L29.934,16.502L29.906,16.448L29.879,16.394L29.85,16.34L29.822,16.287L29.793,16.234L29.764,16.181L29.735,16.128L29.705,16.075L29.675,16.023L29.645,15.971L29.615,15.918L29.584,15.867L29.553,15.815L29.521,15.764L29.489,15.712L29.457,15.661L29.425,15.61L29.392,15.56L29.359,15.509L29.326,15.459L29.292,15.409L29.259,15.359L29.224,15.31L29.19,15.261L29.155,15.211L29.12,15.163L29.085,15.114L29.049,15.065L29.014,15.017L28.977,14.969L28.941,14.921L28.904,14.874L28.867,14.826L28.83,14.779L28.793,14.732L28.755,14.686L28.717,14.639L28.678,14.593L28.64,14.547L28.601,14.501L28.562,14.456L28.522,14.411L28.482,14.366L28.443,14.321L28.402,14.276L28.362,14.232L28.321,14.188L28.28,14.144L28.239,14.101L28.197,14.057L28.155,14.014L28.113,13.971L28.071,13.929L28.029,13.887L27.986,13.845L27.943,13.803L27.899,13.761L27.856,13.72L27.812,13.679L27.768,13.638L27.724,13.598L27.679,13.557L27.634,13.518L27.589,13.478L27.544,13.438L27.499,13.399L27.453,13.36L27.407,13.322L27.361,13.283L27.314,13.245L27.268,13.207L27.221,13.17L27.174,13.133L27.126,13.096L27.079,13.059L27.031,13.023L26.983,12.986L26.935,12.951L26.886,12.915L26.837,12.88L26.789,12.845L26.739,12.81L26.69,12.776L26.641,12.741L26.591,12.708L26.541,12.674L26.491,12.641L26.44,12.608L26.39,12.575L26.339,12.543L26.288,12.511L26.236,12.479L26.185,12.447L26.133,12.416L26.082,12.385L26.029,12.355L25.977,12.325L25.925,12.295L25.872,12.265L25.819,12.236L25.766,12.207L25.713,12.178L25.66,12.15L25.606,12.121L25.552,12.094L25.498,12.066L25.444,12.039L25.39,12.012L25.335,11.986L25.28,11.96L25.226,11.934L25.17,11.908L25.115,11.883L25.06,11.858L25.004,11.834L24.948,11.81L24.892,11.786L24.836,11.762L24.78,11.739L24.723,11.716L24.667,11.693L24.61,11.671L24.553,11.649L24.496,11.628L24.438,11.607L24.381,11.586L24.323,11.565L24.265,11.545L24.207,11.525L24.149,11.506L24.091,11.487L24.032,11.468L23.974,11.45L23.915,11.431L23.856,11.414L23.797,11.396L23.738,11.379L23.679,11.363L23.619,11.346L23.559,11.33L23.5,11.315L23.44,11.3L23.379,11.285L23.319,11.27L23.259,11.256L23.198,11.242L23.138,11.229L23.077,11.216L23.016,11.203L22.955,11.191L22.894,11.179L22.832,11.167L22.771,11.156L22.709,11.145L22.647,11.135L22.586,11.125L22.524,11.115L22.461,11.106L22.399,11.097L22.337,11.089L22.274,11.08L22.212,11.073L22.149,11.065L22.086,11.058L22.023,11.052L21.96,11.045L21.897,11.04L21.833,11.034L21.77,11.029L21.706,11.025L21.643,11.02L21.579,11.016L21.515,11.013L21.451,11.01L21.387,11.007L21.323,11.005L21.258,11.003L21.194,11.002L21.129,11.001L21.065,11L21,11L20.935,11Z" style="fill:white;fill-opacity:0.501961;"/>
    </g>
    <g transform="matrix(4.38095,0,0,4.38095,-42,-42)">
        <path d="M18.5,21.22L19.887,23.028L23.453,19.5" style="fill:none;stroke:white;stroke-width:1px;"/>
    </g>
</svg>
